<?xml version="1.0" encoding="UTF-8"?>
<svg width="100pt" height="100pt" version="1.1" viewBox="0 0 100 100" xmlns="http://www.w3.org/2000/svg">
 <g>
  <path d="m18.734 62.949c-2.9102 0-5.2734 2.3672-5.2734 5.2734s2.3672 5.2734 5.2734 5.2734 5.2734-2.3672 5.2734-5.2734c0.003907-2.9102-2.3633-5.2734-5.2734-5.2734zm0 8.2344c-1.6328 0-2.957-1.3242-2.957-2.957 0-1.6328 1.3242-2.957 2.957-2.957s2.957 1.3242 2.957 2.957c0.003906 1.6289-1.3203 2.957-2.957 2.957z"/>
  <path d="m19.57 68.223c0 1.1094-1.668 1.1094-1.668 0s1.668-1.1094 1.668 0"/>
  <path d="m55.527 30.363c-1.4609 0-2.6406 0.6875-2.6406 1.5352h5.2812c0-0.84766-1.1836-1.5352-2.6406-1.5352z"/>
  <path d="m68.059 30.363c-1.457 0-2.6406 0.6875-2.6406 1.5352h5.2812c0-0.84766-1.1797-1.5352-2.6406-1.5352z"/>
  <path d="m70.281 62.949c-2.9102 0-5.2734 2.3672-5.2734 5.2734s2.3672 5.2734 5.2734 5.2734 5.2734-2.3672 5.2734-5.2734c0.003906-2.9102-2.3633-5.2734-5.2734-5.2734zm0 8.2344c-1.6367 0-2.9609-1.3242-2.9609-2.957 0-1.6328 1.3242-2.957 2.9609-2.957 1.6328 0 2.957 1.3242 2.957 2.957 0 1.6289-1.3242 2.957-2.957 2.957z"/>
  <path d="m71.113 68.223c0 1.1094-1.6641 1.1094-1.6641 0s1.6641-1.1094 1.6641 0"/>
  <path d="m18.441 34.344h74.027c-0.066406-1.2031-0.96875-1.9141-2.4414-1.9141l-69.016-0.003907c-1.7734 0-2.5547 1.4141-2.5898 1.4766-0.058594 0.10938-0.066406 0.24219-0.023437 0.35938 0.011718 0.03125 0.027343 0.054687 0.042968 0.082031z"/>
  <path d="m24.473 66.113c0 0.023438-0.003906 0.046875-0.007812 0.066407l1.9766 3c0.078125 0.12109 0.21484 0.19531 0.35938 0.19531h11.281l0.003907-30.035h-13.613zm1.918-25.297h9.7695c0.25391 0 0.46094 0.20703 0.46094 0.46094l0.003906 7.0664h-10.695v-7.0664c0-0.25391 0.20703-0.46094 0.46094-0.46094zm-0.46094 10.047c0-0.23828 0.19141-0.43359 0.43359-0.43359 0.23828 0 0.43359 0.19141 0.43359 0.43359v1.8711c0 0.23828-0.19531 0.43359-0.43359 0.43359s-0.43359-0.19141-0.43359-0.43359z"/>
  <path d="m38.949 55.332h53.527v-4.2578c0.16797-0.050781 0.28906-0.20312 0.28906-0.38672v-0.48047c0-0.18359-0.12109-0.33594-0.28906-0.39062v-11.719c0.16797-0.050781 0.28906-0.20312 0.28906-0.38672v-0.48047c0-0.18359-0.12109-0.33594-0.28906-0.38672v-2.0664h-73.395l-4.1719 16.293c-0.12891 0.0625-0.32422 0.16016-0.56641 0.28125v-0.70312c0-0.12109-0.097656-0.21484-0.21484-0.21484-0.11719 0-0.21484 0.097656-0.21484 0.21484v0.91797c-1.5156 0.75-4.0273 1.9961-4.6836 2.3242-1.3164 0.65625-1.4844 1.7305-1.4844 2.5938v0.45703c0.015625-0.003906 0.03125-0.007812 0.046875-0.007812h0.67578c0.11719 0 0.21484 0.097656 0.21484 0.21875 0 0.11719-0.097656 0.21484-0.21484 0.21484h-0.67578c-0.015625 0-0.03125-0.003907-0.046875-0.007813v0.53906c0.015625-0.003907 0.03125-0.007813 0.046875-0.007813l0.67578 0.003906c0.11719 0 0.21484 0.097657 0.21484 0.21875 0 0.11719-0.097656 0.21484-0.21484 0.21484l-0.67578-0.003906c-0.015625 0-0.03125-0.003907-0.046875-0.007813v0.53906c0.015625-0.003907 0.03125-0.007813 0.046875-0.007813l0.67578 0.003906c0.11719 0 0.21484 0.097657 0.21484 0.21875 0 0.11719-0.097656 0.21875-0.21484 0.21875l-0.67578-0.003906c-0.015625 0-0.03125-0.003906-0.046875-0.007812v0.53906c0.015625-0.003906 0.03125-0.007812 0.046875-0.007812l0.67578 0.003906c0.11719 0 0.21484 0.097656 0.21484 0.21484 0 0.11719-0.097656 0.21875-0.21484 0.21875h-0.67578c-0.015625 0-0.03125-0.003906-0.046875-0.007813v0.53906c0.015625-0.003906 0.03125-0.007813 0.046875-0.007813h0.67578c0.11719 0 0.21484 0.097657 0.21484 0.21484 0 0.12109-0.097656 0.21875-0.21484 0.21875h-0.67578c-0.015625 0-0.03125-0.003906-0.046875-0.007813v0.53906c0.015625-0.003906 0.03125-0.007813 0.046875-0.007813l0.67578 0.003907c0.11719 0 0.21484 0.097656 0.21484 0.21484 0 0.11719-0.097656 0.21484-0.21484 0.21484l-0.67578 0.003906c-0.015625 0-0.03125-0.003906-0.046875-0.007812v0.53906c0.015625-0.003906 0.03125-0.007812 0.046875-0.007812l0.67578 0.003906c0.11719 0 0.21484 0.097656 0.21484 0.21484 0 0.12109-0.097656 0.21484-0.21484 0.21484h-0.67578c-0.015625 0-0.03125-0.003906-0.046875-0.007813v0.66016c-0.039063-0.011719-0.078125-0.019532-0.125-0.019532h-1.1992c-0.22656 0-0.41016 0.18359-0.41016 0.40625v3.168c0 0.22656 0.18359 0.40625 0.41016 0.40625h1.1992c0.22656 0 0.40625-0.18359 0.40625-0.40625v-0.23047h4.3438c0.16016 0 0.30469-0.085937 0.37891-0.22656l0.60156-1.1172c0.015626-0.019531 0.03125-0.046875 0.042969-0.070312 0.058594-0.12109 0.11719-0.23438 0.18359-0.35156l0.015625-0.03125c1.043-1.832 3.0156-2.9961 5.1406-2.9961 1.9531 0 3.7695 0.96094 4.875 2.5664v-25.961c0-0.23828 0.19531-0.43359 0.43359-0.43359h14.477c0.23828 0 0.43359 0.19141 0.43359 0.43359zm-28.586 7.6094c-0.38672 0-0.69531-0.76562-0.69531-1.7031 0-0.94141 0.3125-1.7031 0.69531-1.7031 0.38281 0 0.69531 0.76562 0.69531 1.7031 0 0.94141-0.3125 1.7031-0.69531 1.7031zm0.79297-4.5586c0 0.10547-0.085938 0.19531-0.19531 0.19531h-1.0977c-0.10938 0-0.19531-0.089844-0.19531-0.19531v-0.4375c0-0.10547 0.089843-0.19531 0.19531-0.19531h1.0977c0.10937 0 0.19531 0.089844 0.19531 0.19531zm11.25-9.5312c0 0.49219-0.39844 0.89453-0.89453 0.89453h-3.6875c-0.49219 0-0.89453-0.40234-0.89453-0.89453 0-0.10547 0.019531-0.21094 0.054687-0.30859l2.5625-10.504c0.16406-0.64453 0.74219-1.0938 1.4062-1.0938 0.80078 0 1.4492 0.64844 1.4492 1.4492z"/>
  <path d="m92.859 66.039h-0.38281v-1.9883c0.16797-0.050781 0.28906-0.20312 0.28906-0.39062v-0.48047c0-0.18359-0.12109-0.33594-0.28906-0.39063v-6.6016l-53.527 0.007812v13.184h24.383c0.23828 0 0.43359-0.19141 0.43359-0.43359v-0.72266c0-3.7109 2.9219-6.7305 6.5156-6.7305s6.5156 3.0195 6.5156 6.7383l0.015625 0.71094c0.003906 0.23438 0.19531 0.42578 0.43359 0.42578h14.367v0.24609c0 0.22656 0.18359 0.40625 0.40625 0.40625h0.83984c0.22656 0 0.40625-0.18359 0.40625-0.40625v-3.168c0.003906-0.22266-0.17969-0.40625-0.40625-0.40625zm-5.7852-1.4883h-9.2891c-0.11719 0-0.21875-0.097656-0.21875-0.21875 0-0.11719 0.097656-0.21484 0.21875-0.21484h9.2891c0.11719 0 0.21484 0.097656 0.21484 0.21484 0 0.12109-0.09375 0.21875-0.21484 0.21875zm0-1.582h-9.2891c-0.11719 0-0.21875-0.097656-0.21875-0.21484 0-0.11719 0.097656-0.21875 0.21875-0.21875h9.2891c0.11719 0 0.21484 0.097656 0.21484 0.21875 0 0.11719-0.09375 0.21484-0.21484 0.21484zm0-1.5859h-9.2891c-0.11719 0-0.21875-0.097656-0.21875-0.21484 0-0.12109 0.097656-0.21484 0.21875-0.21484h9.2891c0.11719 0 0.21484 0.097656 0.21484 0.21484 0 0.11719-0.09375 0.21484-0.21484 0.21484z"/>
 </g>
</svg>
