<?xml version="1.0" encoding="UTF-8"?>
<svg width="100pt" height="100pt" version="1.1" viewBox="0 0 100 100" xmlns="http://www.w3.org/2000/svg">
 <g>
  <path d="m18.734 60.949c-2.9102 0-5.2734 2.3672-5.2734 5.2734s2.3672 5.2734 5.2734 5.2734 5.2734-2.3672 5.2734-5.2734c0.003907-2.9102-2.3633-5.2734-5.2734-5.2734zm0 8.2344c-1.6328 0-2.957-1.3242-2.957-2.957 0-1.6328 1.3242-2.957 2.957-2.957s2.957 1.3242 2.957 2.957c0.003906 1.6289-1.3203 2.957-2.957 2.957z"/>
  <path d="m19.57 66.223c0 1.1094-1.668 1.1094-1.668 0s1.668-1.1094 1.668 0"/>
  <path d="m55.527 28.363c-1.4609 0-2.6406 0.6875-2.6406 1.5352h5.2812c0-0.84766-1.1836-1.5352-2.6406-1.5352z"/>
  <path d="m68.059 28.363c-1.457 0-2.6406 0.6875-2.6406 1.5352h5.2812c0-0.84766-1.1797-1.5352-2.6406-1.5352z"/>
  <path d="m70.281 60.949c-2.9102 0-5.2734 2.3672-5.2734 5.2734s2.3672 5.2734 5.2734 5.2734 5.2734-2.3672 5.2734-5.2734c0.003906-2.9102-2.3633-5.2734-5.2734-5.2734zm0 8.2344c-1.6367 0-2.9609-1.3242-2.9609-2.957 0-1.6328 1.3242-2.957 2.9609-2.957 1.6328 0 2.957 1.3242 2.957 2.957 0 1.6289-1.3242 2.957-2.957 2.957z"/>
  <path d="m71.113 66.223c0 1.1094-1.6641 1.1094-1.6641 0s1.6641-1.1094 1.6641 0"/>
  <path d="m18.441 32.344h74.027c-0.066406-1.2031-0.96875-1.9141-2.4414-1.9141l-69.016-0.003907c-1.7734 0-2.5547 1.4141-2.5898 1.4766-0.058594 0.10938-0.066406 0.24219-0.023437 0.35938 0.011718 0.03125 0.027343 0.054687 0.042968 0.082031z"/>
  <path d="m24.473 64.113c0 0.023438-0.003906 0.046875-0.007812 0.066407l1.9766 3c0.078125 0.12109 0.21484 0.19531 0.35938 0.19531h11.281l0.003907-30.035h-13.613zm1.918-25.297h9.7695c0.25391 0 0.46094 0.20703 0.46094 0.46094l0.003906 7.0664h-10.695v-7.0664c0-0.25391 0.20703-0.46094 0.46094-0.46094zm-0.46094 10.047c0-0.23828 0.19141-0.43359 0.43359-0.43359 0.23828 0 0.43359 0.19141 0.43359 0.43359v1.8711c0 0.23828-0.19531 0.43359-0.43359 0.43359s-0.43359-0.19141-0.43359-0.43359z"/>
  <path d="m92.859 64.039h-0.38281v-1.9883c0.16797-0.050781 0.28906-0.20312 0.28906-0.39062v-0.48047c0-0.18359-0.12109-0.33594-0.28906-0.39063v-6.6016l-53.527 0.007812v13.184h24.383c0.23828 0 0.43359-0.19141 0.43359-0.43359v-0.72266c0-3.7109 2.9219-6.7305 6.5156-6.7305s6.5156 3.0195 6.5156 6.7383l0.015625 0.71094c0.003906 0.23438 0.19531 0.42578 0.43359 0.42578h14.367v0.24609c0 0.22656 0.18359 0.40625 0.40625 0.40625h0.83984c0.22656 0 0.40625-0.18359 0.40625-0.40625v-3.168c0.003906-0.22266-0.17969-0.40625-0.40625-0.40625zm-5.7852-1.4883h-9.2891c-0.11719 0-0.21875-0.097656-0.21875-0.21875 0-0.11719 0.097656-0.21484 0.21875-0.21484h9.2891c0.11719 0 0.21484 0.097656 0.21484 0.21484 0 0.12109-0.09375 0.21875-0.21484 0.21875zm0-1.582h-9.2891c-0.11719 0-0.21875-0.097656-0.21875-0.21484 0-0.11719 0.097656-0.21875 0.21875-0.21875h9.2891c0.11719 0 0.21484 0.097656 0.21484 0.21875 0 0.11719-0.09375 0.21484-0.21484 0.21484zm0-1.5859h-9.2891c-0.11719 0-0.21875-0.097656-0.21875-0.21484 0-0.12109 0.097656-0.21484 0.21875-0.21484h9.2891c0.11719 0 0.21484 0.097656 0.21484 0.21484 0 0.11719-0.09375 0.21484-0.21484 0.21484z"/>
  <path d="m58.617 42.066c0 2.5898-3.8867 2.5898-3.8867 0s3.8867-2.5898 3.8867 0"/>
  <path d="m55.223 44.809h2.9023v2.4062h-2.9023z"/>
  <path d="m58.59 47.68v3.9062h1.0391s0.87891-1.1719 1.0859-1.457c0.21094-0.28125 0.28125-0.63281 0.26953-0.85938-0.011719-0.22656-0.22266-2.6055-0.22266-2.6055 0-1.0234-0.82812-1.8555-1.8555-1.8555h-0.32031l0.007812 2.8711z"/>
  <path d="m53.719 51.582h1.0391l0.003907-1.4023v-5.375h-0.31641c-1.0234 0-1.8555 0.83203-1.8555 1.8555 0 0-0.21094 2.3789-0.22266 2.6055-0.011719 0.22656 0.0625 0.57812 0.26953 0.85938 0.20703 0.28516 1.082 1.457 1.082 1.457z"/>
  <path d="m71.98 46.273c-0.007813-0.007813-0.015625-0.011719-0.023438-0.019532-0.33984-0.37109-0.82422-0.60938-1.3672-0.60938h-0.066406c-1.0234 0-1.6523 0.84766-1.8555 1.8555l-1.1016 4.5117-18.629-0.003907v1.3203h26.98v-1.8984zm0.03125 5.7344c0.10547-0.88672 0.039062-1.9141 0.039062-1.9141l1.9336 1.9141z"/>
  <path d="m74.301 43.539c0 2.5898-3.8867 2.5898-3.8867 0 0-2.5898 3.8867-2.5898 3.8867 0"/>
  <path d="m92.766 35.711v-0.48047c0-0.18359-0.12109-0.33594-0.28906-0.38672v-2.0664h-73.395l-4.1719 16.293c-0.12891 0.0625-0.32422 0.16016-0.56641 0.28125v-0.70312c0-0.12109-0.097656-0.21484-0.21484-0.21484-0.11719 0-0.21484 0.097656-0.21484 0.21484v0.91797c-1.5156 0.75-4.0273 1.9961-4.6836 2.3242-1.3164 0.65625-1.4844 1.7305-1.4844 2.5938v0.45703c0.015625-0.003906 0.03125-0.007812 0.046875-0.007812h0.67578c0.11719 0 0.21484 0.097656 0.21484 0.21875 0 0.11719-0.097656 0.21484-0.21484 0.21484h-0.67578c-0.015625 0-0.03125-0.003907-0.046875-0.007813v0.53906c0.015625-0.003907 0.03125-0.007813 0.046875-0.007813l0.67578 0.003906c0.11719 0 0.21484 0.097657 0.21484 0.21875 0 0.11719-0.097656 0.21484-0.21484 0.21484l-0.67578-0.003906c-0.015625 0-0.03125-0.003907-0.046875-0.007813v0.53906c0.015625-0.003907 0.03125-0.007813 0.046875-0.007813l0.67578 0.003906c0.11719 0 0.21484 0.097657 0.21484 0.21875 0 0.11719-0.097656 0.21875-0.21484 0.21875l-0.67578-0.003906c-0.015625 0-0.03125-0.003906-0.046875-0.007812v0.53906c0.015625-0.003906 0.03125-0.007812 0.046875-0.007812l0.67578 0.003906c0.11719 0 0.21484 0.097656 0.21484 0.21484 0 0.11719-0.097656 0.21875-0.21484 0.21875h-0.67578c-0.015625 0-0.03125-0.003906-0.046875-0.007813v0.53906c0.015625-0.003906 0.03125-0.007813 0.046875-0.007813h0.67578c0.11719 0 0.21484 0.097657 0.21484 0.21484 0 0.12109-0.097656 0.21875-0.21484 0.21875h-0.67578c-0.015625 0-0.03125-0.003906-0.046875-0.007813v0.53906c0.015625-0.003906 0.03125-0.007813 0.046875-0.007813l0.67578 0.003907c0.11719 0 0.21484 0.097656 0.21484 0.21484 0 0.11719-0.097656 0.21484-0.21484 0.21484l-0.67578 0.003906c-0.015625 0-0.03125-0.003906-0.046875-0.007812v0.53906c0.015625-0.003906 0.03125-0.007812 0.046875-0.007812l0.67578 0.003906c0.11719 0 0.21484 0.097656 0.21484 0.21484 0 0.12109-0.097656 0.21484-0.21484 0.21484h-0.67578c-0.015625 0-0.03125-0.003906-0.046875-0.007813v0.66016c-0.039063-0.011719-0.078125-0.019532-0.125-0.019532h-1.1992c-0.22656 0-0.41016 0.18359-0.41016 0.40625v3.168c0 0.22656 0.18359 0.40625 0.41016 0.40625h1.1992c0.22656 0 0.40625-0.18359 0.40625-0.40625v-0.23047h4.3438c0.16016 0 0.30469-0.085937 0.37891-0.22656l0.60156-1.1172c0.015626-0.019531 0.03125-0.046875 0.042969-0.070312 0.058594-0.12109 0.11719-0.23438 0.18359-0.35156l0.015625-0.03125c1.043-1.832 3.0156-2.9961 5.1406-2.9961 1.9531 0 3.7695 0.96094 4.875 2.5664v-25.961c0-0.23828 0.19531-0.43359 0.43359-0.43359h14.477c0.23828 0 0.43359 0.19141 0.43359 0.43359v16.422h9.1562l-0.003906-15.5h28.676v15.496h15.695v-4.2578c0.16797-0.050781 0.28906-0.20312 0.28906-0.38672v-0.48047c0-0.18359-0.12109-0.33594-0.28906-0.39062v-11.719c0.16797-0.046875 0.28906-0.19922 0.28906-0.38281zm-82.402 25.23c-0.38672 0-0.69531-0.76562-0.69531-1.7031 0-0.94141 0.3125-1.7031 0.69531-1.7031 0.38281 0 0.69531 0.76562 0.69531 1.7031 0 0.94141-0.3125 1.7031-0.69531 1.7031zm0.79297-4.5586c0 0.10547-0.085938 0.19531-0.19531 0.19531h-1.0977c-0.10938 0-0.19531-0.089844-0.19531-0.19531v-0.4375c0-0.10547 0.089843-0.19531 0.19531-0.19531h1.0977c0.10937 0 0.19531 0.089844 0.19531 0.19531zm11.25-9.5312c0 0.49219-0.39844 0.89453-0.89453 0.89453h-3.6875c-0.49219 0-0.89453-0.40234-0.89453-0.89453 0-0.10547 0.019531-0.21094 0.054687-0.30859l2.5625-10.504c0.16406-0.64453 0.74219-1.0938 1.4062-1.0938 0.80078 0 1.4492 0.64844 1.4492 1.4492zm63.105-2.8711c0.085937-0.003907 0.16797-0.007813 0.25391-0.007813 1.1406 0 2.0625 0.53516 2.0625 1.1953h-2.4375zm-8.7305-7.7305h-28.676l-3.6094-2h36.105zm4.957 5.6133c0-0.15234-0.019531-0.375 1.7383-0.375l0.28125-1.0977c0.007813-0.027344 0.027344-0.054687 0.054688-0.070313l0.78125-0.39062c0.039062 0 0.078125 0.019531 0.097656 0.058593 0.015625 0.023438 0.015625 0.054688 0.007813 0.085938-0.007813 0.027343-0.027344 0.054687-0.058594 0.066406l-0.69141 0.38281-0.24609 0.96484c1.5547 0.019531 1.5781 0.22656 1.5781 0.375 0 0 0.14453 0.13672-1.7891 0.13672-1.9336 0-1.7539-0.13672-1.7539-0.13672zm0.53516 5.7266l-0.53516-5.2461c0.23047 0.0625 0.70703 0.09375 1.7539 0.09375 1.0625 0 1.5469-0.035156 1.7773-0.097656l-0.53516 5.2461c-0.058594 0.53906-2.3906 0.54687-2.4609 0.003906zm4.8984-0.26953h-1.9961l0.0625-0.625h2.6055c-0.003906 0.34375-0.30469 0.625-0.67188 0.625zm0.40234-1.1367h-2.2852l0.050782-0.50391h2.2344c0.14453 0 0.26953 0.11328 0.26953 0.25 0 0.13672-0.12109 0.25391-0.26953 0.25391z"/>
 </g>
</svg>
