<svg xmlns="http://www.w3.org/2000/svg" width="57.27" height="80" viewBox="0 0 57.27 80"><defs><style>.cls-1{fill:#010202;}.cls-2{fill:#fff;}.cls-3{fill:#e03228;}.cls-4{fill:#f9a31a;}.cls-5{fill:#df2e27;}</style></defs><title>mapPin2</title><g id="Layer_2" data-name="Layer 2"><g id="Layer_1-2" data-name="Layer 1"><g id="Horizontal"><path d="M1.46,64.39C4,68.73,14,80,28.64,80S53.23,68.72,55.81,64.39c2.28-3.84,1.52-7.19.25-12.74h0A126,126,0,0,1,53.72,39C52.37,28.63,50,18.41,42.2,13.31a6.57,6.57,0,0,0-1.75-7.92A5.41,5.41,0,0,0,35.7,4.23,5.34,5.34,0,0,0,31.14.65a6,6,0,0,0-5.09,1.87A6.93,6.93,0,0,0,19.36.13,4.78,4.78,0,0,0,16,2.69c-1.36,2.49-1.24,6.08.29,9.88C7.52,17.37,5,28.09,3.56,39q-.85,6.39-2.35,12.66C0,57.21-.82,60.56,1.46,64.39Z"/><path d="M28.64,79.36c-14.38,0-24.09-11-26.62-15.3C-.13,60.45.57,57.38,1.83,51.81v-.05A123.85,123.85,0,0,0,4.18,39.09C5.58,28.38,8.05,17.83,16.6,13.15a.64.64,0,0,0,.28-.81c-1.46-3.62-1.57-7-.32-9.33A4.22,4.22,0,0,1,19.47.77a6.31,6.31,0,0,1,6.08,2.16.65.65,0,0,0,.49.23h0A.63.63,0,0,0,26.53,3a5.42,5.42,0,0,1,3.94-1.69q.3,0,.6,0a4.69,4.69,0,0,1,4,3.14.63.63,0,0,0,.6.43.47.47,0,0,0,.17,0,4.06,4.06,0,0,1,1-.13,5.07,5.07,0,0,1,3.15,1.18A5.89,5.89,0,0,1,41.62,13a.66.66,0,0,0,.24.8c7.63,5,9.9,15.08,11.22,25.24a125.41,125.41,0,0,0,2.33,12.61l0,.1c1.24,5.39,2,8.63-.17,12.26C52.72,68.31,43,79.36,28.64,79.36Z"/><path class="cls-1" d="M18.81,11.69c-1.28-3.09-1.47-6-.49-7.8h0a2.25,2.25,0,0,1,1.52-1.23,4.12,4.12,0,0,1,.86-.09,4.27,4.27,0,0,1,4.11,3l1.4,4,1.12-4.09a3.17,3.17,0,0,1,3.52-2.26,2.86,2.86,0,0,1,2.6,3l.11,2.88,2.12-2c.89-.83,2.25-.45,3.14.27a3.79,3.79,0,0,1,1.09,4.54A11.38,11.38,0,0,0,30,13.46a13,13,0,0,0-5.07,5.82A20,20,0,0,1,18.81,11.69Z"/><path class="cls-1" d="M3.73,52.29A125.43,125.43,0,0,0,6.12,39.4C7.45,29.24,9.76,19.28,17.43,15a25,25,0,0,0,7.65,7.84l2.11,1.28-.1-2.47c-.06-1.46,1.54-4,4.31-5.83a8.84,8.84,0,0,1,7.78-1.23,1.43,1.43,0,0,0,.22.15c8,4.15,10.4,14.3,11.75,24.66a128.18,128.18,0,0,0,2.39,12.89c1.24,5.42,1.8,7.89.06,10.81h0c-2.22,3.72-11.56,14.34-25,14.34S5.89,66.83,3.68,63.11C1.92,60.16,2.5,57.71,3.73,52.29Z"/><path class="cls-2" d="M28.64,77.44a26.7,26.7,0,0,0,10.74-2.33A35,35,0,0,0,52.55,64.64,13.28,13.28,0,0,0,54,62.33a8,8,0,0,0,.64-4,37.94,37.94,0,0,0-1-5.61c-.38-1.64-.75-3.28-1.09-4.92-.41-2-.77-4.05-1.08-6.08s-.57-4.24-.92-6.35a48.69,48.69,0,0,0-2.93-11,19.76,19.76,0,0,0-6-8.17,15.7,15.7,0,0,0-2.15-1.38A11.62,11.62,0,0,0,38,14.3a7.79,7.79,0,0,0-1.67-.13,10,10,0,0,0-5,1.68,10.78,10.78,0,0,0-3.8,4,4,4,0,0,0-.47,1.75c0,.41,0,.83.05,1.24l.06,1.23a38.64,38.64,0,0,1-3.8-2.47A26,26,0,0,1,20,18.45a24.45,24.45,0,0,1-1.79-2.27l-.41-.63-.2-.32a1,1,0,0,0-.08-.14c-.13-.13,0-.06-.17,0a2.58,2.58,0,0,0-.53.32l-.55.36a18.71,18.71,0,0,0-6.19,7.73A44,44,0,0,0,6.94,34.08C6.2,38.15,5.79,42.27,5,46.34c-.32,1.67-.68,3.32-1,5-.42,1.84-.88,3.68-1.18,5.54a10.34,10.34,0,0,0,0,4.22,8.79,8.79,0,0,0,1.39,2.83,30.13,30.13,0,0,0,4.36,4.94,34.68,34.68,0,0,0,7.36,5.3,27.83,27.83,0,0,0,9.94,3.13A25.54,25.54,0,0,0,28.64,77.44Z"/><path d="M38.64,49.6a4.89,4.89,0,0,1,.25,2.24,6.55,6.55,0,0,1-.62,1.79c-.39.85-.83,1.67-1.29,2.47-.64,1.11-1.32,2.2-2,3.27.6.83,1.19,1.71,1.7,2.56a17.55,17.55,0,0,1,1.43,2.88,6.31,6.31,0,0,1-.15,4.64,6,6,0,0,1-3.26,3.2,6,6,0,0,1-5.87-.81A6,6,0,0,1,24,73a7.05,7.05,0,0,1-1.11-.32,6,6,0,0,1-3.26-3.2,6.33,6.33,0,0,1-.15-4.65A17.21,17.21,0,0,1,21,61.94c.5-.86,1.09-1.75,1.7-2.59L22.38,59a43.18,43.18,0,0,1-3.05-5.33,6.8,6.8,0,0,1-.61-1.76,6.09,6.09,0,0,1,1.21-4.17c.79-1.23,1.71-2.49,2.63-3.67a18.39,18.39,0,0,1,3.36-3.41,4.51,4.51,0,0,1,3.9-1,8.49,8.49,0,0,1,3.63,2.56,28.91,28.91,0,0,1,2.91,3.61A15.67,15.67,0,0,1,38.64,49.6ZM36.12,68.84a5.08,5.08,0,0,0,.08-3.62A16.15,16.15,0,0,0,35,62.72c-.32-.55-.7-1.15-1.11-1.75l-.48.67c-.57.78-1.17,1.56-1.8,2.29a11,11,0,0,1-1.49,1.48,2.07,2.07,0,0,1-2.56,0A9,9,0,0,1,26.06,64a37.74,37.74,0,0,1-2.33-3c-.41.6-.79,1.2-1.12,1.76a16.51,16.51,0,0,0-1.24,2.49,5.19,5.19,0,0,0,.08,3.62,4.28,4.28,0,0,0,2.35,2.46,3.52,3.52,0,0,0,2.22.16,3.66,3.66,0,0,0,1.81-1.26c.18-.2.65-1.28,1-1.28s.78,1.08,1,1.28a3.28,3.28,0,0,0,4,1.1A4.34,4.34,0,0,0,36.12,68.84Z"/><path class="cls-3" d="M36.2,65.22a5.08,5.08,0,0,1-.08,3.62,4.34,4.34,0,0,1-2.35,2.46,3.52,3.52,0,0,1-2.22.16,3.72,3.72,0,0,1-1.79-1.26c-.18-.21-.64-1.28-1-1.28S28,70,27.84,70.2A3.56,3.56,0,0,1,26,71.46a3.49,3.49,0,0,1-2.21-.16,4.35,4.35,0,0,1-2.36-2.46,5.19,5.19,0,0,1-.08-3.62,17.1,17.1,0,0,1,1.24-2.5c.32-.55.71-1.15,1.12-1.76a36,36,0,0,0,2.33,3,9,9,0,0,0,1.45,1.45,2.07,2.07,0,0,0,2.56,0,10.28,10.28,0,0,0,1.47-1.48c.64-.73,1.23-1.51,1.81-2.29l.48-.67c.41.6.78,1.2,1.11,1.75A16.1,16.1,0,0,1,36.2,65.22Z"/><path class="cls-4" d="M28.8,63.45a.46.46,0,0,1-.32-.11C26.6,61.7,21,53.38,20.77,51.5c-.18-1.28.83-2.64,1.73-3.86.16-.22.32-.43.45-.64a21.81,21.81,0,0,1,4-4.52,3.07,3.07,0,0,1,1.82-.86h.06a3.2,3.2,0,0,1,1.83.86,22.26,22.26,0,0,1,4,4.51l.37.51.09.12c.89,1.22,1.9,2.6,1.72,3.87-.26,1.89-5.83,10.21-7.7,11.83A.48.48,0,0,1,28.8,63.45Z"/><path class="cls-4" d="M28.76,42.09h.06a2.75,2.75,0,0,1,1.53.76,21.64,21.64,0,0,1,3.9,4.41c.14.21.3.42.46.64.83,1.15,1.78,2.45,1.63,3.52h0c-.23,1.69-5.66,9.92-7.54,11.56-1.88-1.64-7.31-9.87-7.55-11.56-.15-1.07.81-2.36,1.64-3.52.16-.21.32-.42.46-.64a21.64,21.64,0,0,1,3.9-4.41,2.84,2.84,0,0,1,1.51-.76m0-1h0a3.56,3.56,0,0,0-2.11,1,22.38,22.38,0,0,0-4.08,4.61c-.14.2-.29.41-.45.62-1,1.3-2,2.76-1.82,4.22.28,2,5.88,10.41,7.87,12.15a1,1,0,0,0,1.28,0c2-1.73,7.58-10.14,7.86-12.15.2-1.46-.87-2.92-1.81-4.21l-.1-.13c-.12-.17-.24-.32-.35-.5A22.63,22.63,0,0,0,31,42.1a3.55,3.55,0,0,0-2.13-1h-.08Z"/><path class="cls-5" d="M24.88,19.28A13.09,13.09,0,0,1,30,13.46a11.41,11.41,0,0,1,9.94-1.54,3.81,3.81,0,0,0-1.09-4.55c-.89-.71-2.26-1.1-3.15-.26l-2.11,2-.11-2.88a2.87,2.87,0,0,0-2.6-3,3.18,3.18,0,0,0-3.52,2.26L26.21,9.56l-1.4-4a4.28,4.28,0,0,0-4.11-3,4.12,4.12,0,0,0-.86.09,2.25,2.25,0,0,0-1.51,1.23h0c-1,1.8-.8,4.71.49,7.8A20,20,0,0,0,24.88,19.28Z"/><path d="M17.22,41.77h0a2.09,2.09,0,1,0,.16-4.17h-.16a2.09,2.09,0,1,0-.17,4.17Z"/><path class="cls-1" d="M40.06,37.6A2.07,2.07,0,0,0,38,39.68h0a2.09,2.09,0,1,0,2.09-2.09Z"/></g></g></g></svg>