<svg xmlns="http://www.w3.org/2000/svg" width="30" height="41.9" viewBox="0 0 30 41.9"><defs><style>.cls-1{fill:#010202;}.cls-2{fill:#fff;}.cls-3{fill:#e03228;}.cls-4{fill:#f9a31a;}.cls-5{fill:#df2e27;}</style></defs><title>mapPin3</title><g id="Layer_2" data-name="Layer 2"><g id="Layer_1-2" data-name="Layer 1"><g id="Horizontal"><path d="M.77,33.73C2.12,36,7.31,41.9,15,41.9S27.88,36,29.23,33.73c1.2-2,.8-3.77.14-6.67h0a62.35,62.35,0,0,1-1.23-6.63C27.43,15,26.19,9.64,22.1,7a3.43,3.43,0,0,0-.91-4.14,2.82,2.82,0,0,0-2.49-.61A2.8,2.8,0,0,0,16.31.34a3.16,3.16,0,0,0-2.66,1A3.64,3.64,0,0,0,10.14.07,2.51,2.51,0,0,0,8.38,1.41a6.23,6.23,0,0,0,.15,5.18C3.94,9.1,2.6,14.72,1.86,20.42c-.3,2.23-.71,4.45-1.23,6.64C0,30-.43,31.72.77,33.73Z"/><path d="M15,41.57c-7.53,0-12.62-5.78-13.94-8C-.07,31.67.3,30.06,1,27.14v0q.78-3.28,1.23-6.63c.73-5.61,2-11.14,6.5-13.59a.33.33,0,0,0,.15-.42,5.91,5.91,0,0,1-.16-4.89A2.2,2.2,0,0,1,10.2.4a3.39,3.39,0,0,1,.64-.06,3.28,3.28,0,0,1,2.54,1.19.35.35,0,0,0,.26.13h0a.34.34,0,0,0,.25-.11A2.85,2.85,0,0,1,16,.66a1.62,1.62,0,0,1,.31,0,2.45,2.45,0,0,1,2.12,1.64.32.32,0,0,0,.31.23h.09a2,2,0,0,1,.54-.07A2.66,2.66,0,0,1,21,3.08a3.09,3.09,0,0,1,.82,3.75.35.35,0,0,0,.13.42c4,2.61,5.18,7.9,5.87,13.22q.45,3.33,1.22,6.6l0,.06c.64,2.82,1,4.52-.1,6.42C27.62,35.78,22.52,41.57,15,41.57Z"/><path class="cls-1" d="M9.85,6.12A5,5,0,0,1,9.6,2h0a1.18,1.18,0,0,1,.79-.65,2.28,2.28,0,0,1,.45,0A2.24,2.24,0,0,1,13,2.91L13.73,5l.59-2.14a1.66,1.66,0,0,1,1.84-1.19,1.5,1.5,0,0,1,1.36,1.57l.06,1.51,1.11-1a1.27,1.27,0,0,1,1.65.14,2,2,0,0,1,.57,2.38,6,6,0,0,0-5.21.81A6.8,6.8,0,0,0,13,10.1,10.56,10.56,0,0,1,9.85,6.12Z"/><path class="cls-1" d="M2,27.39a64.65,64.65,0,0,0,1.26-6.75C3.9,15.31,5.11,10.1,9.13,7.86a13.09,13.09,0,0,0,4,4.1l1.11.67-.05-1.29c0-.77.81-2.12,2.26-3.06a4.65,4.65,0,0,1,4.07-.64l.12.08c4.21,2.17,5.44,7.49,6.15,12.92a64.65,64.65,0,0,0,1.26,6.75c.64,2.84.94,4.13,0,5.66h0C26.91,35,22,40.56,15,40.56S3.09,35,1.93,33.06C1,31.51,1.31,30.23,2,27.39Z"/><path class="cls-2" d="M15,40.56a13.84,13.84,0,0,0,5.63-1.22,18.36,18.36,0,0,0,6.9-5.48,7.23,7.23,0,0,0,.76-1.21,4.18,4.18,0,0,0,.34-2.09,19.5,19.5,0,0,0-.54-2.94q-.3-1.29-.57-2.58c-.22-1.06-.4-2.12-.57-3.18s-.29-2.22-.47-3.33a26.07,26.07,0,0,0-1.54-5.76,10.38,10.38,0,0,0-3.12-4.28,7.74,7.74,0,0,0-1.13-.72,5.16,5.16,0,0,0-.78-.28A4.26,4.26,0,0,0,19,7.42a5.32,5.32,0,0,0-2.62.88,5.75,5.75,0,0,0-2,2.12,2,2,0,0,0-.25.92c0,.22,0,.43,0,.65l0,.65a22.09,22.09,0,0,1-2-1.3,14.19,14.19,0,0,1-1.79-1.68,10.93,10.93,0,0,1-.94-1.19l-.21-.32L9.2,8a.16.16,0,0,0,0-.07c-.07-.07,0,0-.09,0a1.17,1.17,0,0,0-.28.17l-.28.18a9.78,9.78,0,0,0-3.24,4,22.47,22.47,0,0,0-1.63,5.56c-.39,2.13-.6,4.29-1,6.42-.17.88-.36,1.74-.55,2.61s-.46,1.93-.62,2.91a5.67,5.67,0,0,0,0,2.21,4.87,4.87,0,0,0,.73,1.48,16,16,0,0,0,2.28,2.59,18.52,18.52,0,0,0,3.86,2.77,14.49,14.49,0,0,0,5.21,1.64A13.9,13.9,0,0,0,15,40.56Z"/><path d="M20.24,26a2.63,2.63,0,0,1,.13,1.18,3.42,3.42,0,0,1-.32.93c-.21.45-.44.87-.68,1.29-.34.59-.69,1.16-1.06,1.72.31.43.62.9.88,1.34A9.28,9.28,0,0,1,20,34a3.34,3.34,0,0,1-.08,2.43,3.14,3.14,0,0,1-1.71,1.67,3.11,3.11,0,0,1-3.08-.42,3.1,3.1,0,0,1-2.5.6,2.87,2.87,0,0,1-.57-.17,3.11,3.11,0,0,1-1.71-1.67A3.32,3.32,0,0,1,10.22,34,8.85,8.85,0,0,1,11,32.44c.27-.44.57-.91.9-1.35,0-.07-.1-.14-.14-.21a20.32,20.32,0,0,1-1.6-2.79,3.74,3.74,0,0,1-.33-.92A3.23,3.23,0,0,1,10.44,25c.42-.64.89-1.3,1.38-1.92a9.32,9.32,0,0,1,1.76-1.79,2.4,2.4,0,0,1,2-.5,4.56,4.56,0,0,1,1.9,1.34A14.55,14.55,0,0,1,19,24,8,8,0,0,1,20.24,26ZM18.92,36.06a2.65,2.65,0,0,0,0-1.9,8.4,8.4,0,0,0-.65-1.31c-.16-.29-.37-.6-.58-.91l-.25.35c-.3.41-.61.81-.94,1.2a5.75,5.75,0,0,1-.79.77,1.08,1.08,0,0,1-1.34,0,4.9,4.9,0,0,1-.76-.75c-.43-.51-.84-1-1.22-1.58-.22.32-.41.63-.59.92a9.39,9.39,0,0,0-.65,1.31,2.73,2.73,0,0,0,0,1.89,2.28,2.28,0,0,0,1.24,1.29,1.78,1.78,0,0,0,1.16.08,1.92,1.92,0,0,0,.95-.65c.09-.11.34-.67.5-.67s.41.56.5.67a1.92,1.92,0,0,0,.94.66,1.85,1.85,0,0,0,1.16-.09A2.26,2.26,0,0,0,18.92,36.06Z"/><path class="cls-3" d="M19,34.16a2.65,2.65,0,0,1,0,1.9,2.29,2.29,0,0,1-1.23,1.29,1.85,1.85,0,0,1-1.16.08,1.88,1.88,0,0,1-.94-.66c-.1-.11-.34-.67-.5-.67s-.41.57-.51.67a1.82,1.82,0,0,1-.94.66,1.84,1.84,0,0,1-1.16-.08,2.31,2.31,0,0,1-1.24-1.29,2.76,2.76,0,0,1,0-1.9,8.4,8.4,0,0,1,.65-1.31c.16-.29.37-.6.58-.92.39.55.79,1.08,1.22,1.58a5.46,5.46,0,0,0,.76.76,1.11,1.11,0,0,0,1.34,0,4.8,4.8,0,0,0,.78-.78c.33-.38.64-.79.94-1.2.09-.11.17-.23.25-.35.22.32.41.63.59.92A8.76,8.76,0,0,1,19,34.16Z"/><path class="cls-4" d="M15.08,33.24a.23.23,0,0,1-.16-.06c-1-.86-3.9-5.22-4-6.21a3.25,3.25,0,0,1,.9-2,3.43,3.43,0,0,0,.24-.33,11.66,11.66,0,0,1,2.09-2.37,1.63,1.63,0,0,1,1-.45h0a1.62,1.62,0,0,1,1,.45,11.58,11.58,0,0,1,2.09,2.36l.19.27.05.06a3.24,3.24,0,0,1,.9,2c-.14,1-3.05,5.35-4,6.2A.36.36,0,0,1,15.08,33.24Z"/><path class="cls-4" d="M15.07,22.05h0a1.43,1.43,0,0,1,.8.4,11.14,11.14,0,0,1,2,2.31l.24.33A3.15,3.15,0,0,1,19,26.94h0c-.12.88-3,5.19-4,6.05-1-.86-3.83-5.17-3.95-6.05-.08-.57.42-1.24.86-1.85a3.43,3.43,0,0,0,.24-.33,11.43,11.43,0,0,1,2-2.31,1.43,1.43,0,0,1,.8-.4m0-.5h0a1.83,1.83,0,0,0-1.11.5,11.55,11.55,0,0,0-2.14,2.41,3.71,3.71,0,0,1-.23.32,3.42,3.42,0,0,0-1,2.21c.15,1.05,3.08,5.46,4.12,6.37a.5.5,0,0,0,.67,0c1-.91,4-5.31,4.12-6.37a3.34,3.34,0,0,0-.95-2.2l-.05-.07-.18-.26a11.81,11.81,0,0,0-2.14-2.41,1.89,1.89,0,0,0-1.11-.5h0Z"/><path class="cls-5" d="M13,10.1a6.86,6.86,0,0,1,2.66-3,6,6,0,0,1,5.21-.81,2,2,0,0,0-.57-2.38,1.3,1.3,0,0,0-1.65-.14l-1.11,1-.06-1.51a1.51,1.51,0,0,0-1.36-1.57,1.67,1.67,0,0,0-1.84,1.19L13.73,5,13,2.91a2.24,2.24,0,0,0-2.16-1.56,2.28,2.28,0,0,0-.45,0A1.18,1.18,0,0,0,9.6,2h0a5,5,0,0,0,.26,4.08A10.54,10.54,0,0,0,13,10.1Z"/><path d="M9,21.88H9a1.1,1.1,0,0,0,.08-2.19H9a1.1,1.1,0,0,0-.09,2.19Z"/><path class="cls-1" d="M21,19.69a1.09,1.09,0,0,0-1.09,1.09h0A1.1,1.1,0,1,0,21,19.69Z"/></g></g></g></svg>