<svg xmlns="http://www.w3.org/2000/svg" viewBox="0 0 55.79 80"><defs><style>.cls-1{fill-rule:evenodd;}.cls-2{fill:#010202;}.cls-3{fill:#fff;}.cls-4{fill:#e03228;}.cls-5{fill:#f9a31a;}.cls-6{fill:#df2e27;}</style></defs><title>mapPin</title><g id="Layer_2" data-name="Layer 2"><g id="Layer_1-2" data-name="Layer 1"><path class="cls-1" d="M28,0A27.81,27.81,0,0,1,55.79,28c0,13.26-19.37,40.84-27.79,52C19.37,68.84,0,41.26,0,28A27.85,27.85,0,0,1,28,0Zm0,13.89A14,14,0,1,1,13.89,28,14.06,14.06,0,0,1,28,13.89Z"/><g id="Horizontal"><path d="M12,42.82C13.52,45.36,19.32,52,27.89,52s14.37-6.59,15.89-9.13c1.33-2.24.88-4.19.14-7.44h0A73.91,73.91,0,0,1,42.55,28c-.79-6.06-2.17-12-6.73-15a3.82,3.82,0,0,0-1-4.62A3.17,3.17,0,0,0,32,7.67a3.12,3.12,0,0,0-2.66-2.1,3.58,3.58,0,0,0-3,1.09,4.07,4.07,0,0,0-3.91-1.39,2.8,2.8,0,0,0-2,1.5c-.8,1.45-.73,3.55.17,5.77-5.13,2.81-6.62,9.07-7.45,15.44a71.36,71.36,0,0,1-1.37,7.4C11.12,38.63,10.68,40.59,12,42.82Z"/><path d="M27.89,51.58c-8.4,0-14.07-6.46-15.56-8.94-1.25-2.11-.84-3.91-.1-7.17v0A74.83,74.83,0,0,0,13.6,28c.82-6.26,2.26-12.43,7.26-15.16a.37.37,0,0,0,.16-.47c-.85-2.12-.92-4.11-.18-5.46a2.47,2.47,0,0,1,1.7-1.31,5.51,5.51,0,0,1,.71-.07A3.7,3.7,0,0,1,26.09,6.9a.35.35,0,0,0,.28.14h0a.38.38,0,0,0,.29-.12,3.18,3.18,0,0,1,2.31-1,1.94,1.94,0,0,1,.34,0,2.74,2.74,0,0,1,2.36,1.83A.37.37,0,0,0,32,8l.1,0a2.55,2.55,0,0,1,.61-.08,3,3,0,0,1,1.84.69,3.46,3.46,0,0,1,.91,4.19.38.38,0,0,0,.14.46c4.46,2.92,5.79,8.81,6.56,14.75a73.49,73.49,0,0,0,1.36,7.37l0,.06c.72,3.15,1.15,5-.11,7.17C42,45.12,36.29,51.58,27.89,51.58Z"/><path class="cls-2" d="M22.15,12c-.75-1.81-.86-3.51-.28-4.56h0a1.28,1.28,0,0,1,.88-.72,4.26,4.26,0,0,1,.5-.06,2.52,2.52,0,0,1,2.41,1.75l.81,2.34.66-2.39a1.85,1.85,0,0,1,2.06-1.32,1.68,1.68,0,0,1,1.52,1.75l.06,1.68L32,9.34a1.44,1.44,0,0,1,1.84.16,2.23,2.23,0,0,1,.63,2.66,6.63,6.63,0,0,0-5.8.9,7.53,7.53,0,0,0-3,3.4A11.7,11.7,0,0,1,22.15,12Z"/><path class="cls-2" d="M13.34,35.76c.59-2.49,1.06-5,1.4-7.54.77-5.94,2.12-11.76,6.6-14.26a14.7,14.7,0,0,0,4.47,4.58l1.24.75L27,17.84c0-.85.9-2.36,2.52-3.4a5.19,5.19,0,0,1,4.55-.72l.13.09c4.69,2.42,6.07,8.36,6.86,14.41a74.61,74.61,0,0,0,1.4,7.54c.72,3.16,1,4.6,0,6.31h0c-1.29,2.18-6.75,8.38-14.59,8.38s-13.29-6.2-14.58-8.37C12.28,40.36,12.62,38.92,13.34,35.76Z"/><path class="cls-3" d="M27.89,50.45a15.5,15.5,0,0,0,6.29-1.36A20.39,20.39,0,0,0,41.87,43a7.92,7.92,0,0,0,.86-1.35,4.66,4.66,0,0,0,.37-2.33A21.5,21.5,0,0,0,42.5,36c-.22-1-.44-1.92-.63-2.88-.25-1.18-.46-2.36-.64-3.55s-.33-2.47-.53-3.71A28.68,28.68,0,0,0,39,19.44a11.64,11.64,0,0,0-3.47-4.78,9.24,9.24,0,0,0-1.26-.8,7.08,7.08,0,0,0-.88-.31,4.48,4.48,0,0,0-1-.07,5.79,5.79,0,0,0-2.92,1,6.29,6.29,0,0,0-2.22,2.36,2.32,2.32,0,0,0-.27,1c0,.24,0,.48,0,.72l0,.72a21.69,21.69,0,0,1-2.22-1.45,14.72,14.72,0,0,1-2-1.87,13.21,13.21,0,0,1-1-1.32l-.24-.37-.11-.18L21.38,14c-.08-.07,0,0-.1,0a1.57,1.57,0,0,0-.31.18l-.32.21A10.88,10.88,0,0,0,17,18.91a25.68,25.68,0,0,0-1.82,6.2c-.43,2.38-.67,4.79-1.12,7.17-.18,1-.4,1.94-.61,2.91s-.52,2.15-.69,3.24a6,6,0,0,0,0,2.46,5.34,5.34,0,0,0,.81,1.66,17.47,17.47,0,0,0,2.55,2.88,20.18,20.18,0,0,0,4.3,3.1,16.37,16.37,0,0,0,5.81,1.83A14.61,14.61,0,0,0,27.89,50.45Z"/><path d="M33.74,34.18a2.92,2.92,0,0,1,.15,1.31,3.84,3.84,0,0,1-.36,1c-.23.49-.49,1-.76,1.44-.38.65-.77,1.29-1.19,1.91a16.85,16.85,0,0,1,1,1.5,10.14,10.14,0,0,1,.84,1.68,3.68,3.68,0,0,1-.08,2.71A3.49,3.49,0,0,1,28,47.18a3.49,3.49,0,0,1-2.79.67,3,3,0,0,1-.65-.19,3.57,3.57,0,0,1-1.91-1.87,3.68,3.68,0,0,1-.08-2.71,10.64,10.64,0,0,1,.84-1.69,17.12,17.12,0,0,1,1-1.51,1.88,1.88,0,0,1-.16-.23,23.35,23.35,0,0,1-1.78-3.11,3.82,3.82,0,0,1-.36-1,3.55,3.55,0,0,1,.71-2.44c.46-.72,1-1.46,1.53-2.15a11.54,11.54,0,0,1,2-2,2.68,2.68,0,0,1,2.29-.56,5,5,0,0,1,2.11,1.5A15.77,15.77,0,0,1,32.41,32,9.56,9.56,0,0,1,33.74,34.18ZM32.27,45.43a3,3,0,0,0,0-2.12,10.47,10.47,0,0,0-.73-1.46c-.19-.32-.41-.67-.65-1l-.28.39c-.34.46-.68.91-1.05,1.34a5.89,5.89,0,0,1-.87.86,1.23,1.23,0,0,1-1.5,0,5.63,5.63,0,0,1-.85-.84A21.26,21.26,0,0,1,25,40.82c-.23.35-.46.7-.65,1a10.47,10.47,0,0,0-.73,1.46,3.06,3.06,0,0,0,.05,2.11,2.54,2.54,0,0,0,1.38,1.44,2,2,0,0,0,1.29.09,2.15,2.15,0,0,0,1.06-.73c.11-.12.38-.75.56-.75s.46.63.56.75a2.1,2.1,0,0,0,1.05.73,2.07,2.07,0,0,0,1.3-.09A2.58,2.58,0,0,0,32.27,45.43Z"/><path class="cls-4" d="M32.32,43.31a3,3,0,0,1,0,2.12,2.58,2.58,0,0,1-1.37,1.44,2.07,2.07,0,0,1-1.3.09,2.19,2.19,0,0,1-1.05-.74c-.1-.12-.37-.74-.56-.74s-.46.63-.56.74a1.94,1.94,0,0,1-2.35.65,2.57,2.57,0,0,1-1.38-1.44,3.09,3.09,0,0,1-.05-2.12,10.41,10.41,0,0,1,.72-1.46c.19-.32.42-.67.66-1,.43.61.88,1.2,1.36,1.76a5.26,5.26,0,0,0,.85.85,1.23,1.23,0,0,0,1.5,0,6.43,6.43,0,0,0,.86-.87c.37-.43.72-.88,1-1.34.1-.12.19-.26.28-.39.24.35.46.7.65,1A9.89,9.89,0,0,1,32.32,43.31Z"/><path class="cls-5" d="M28,42.28a.26.26,0,0,1-.19-.07c-1.1-1-4.35-5.82-4.5-6.92a3.52,3.52,0,0,1,1-2.26c.09-.12.18-.24.26-.37A12.84,12.84,0,0,1,26.9,30a1.84,1.84,0,0,1,1.06-.5h0a1.88,1.88,0,0,1,1.07.5,12.84,12.84,0,0,1,2.33,2.64l.21.3.05.06a3.62,3.62,0,0,1,1,2.26c-.15,1.11-3.41,6-4.5,6.92A.27.27,0,0,1,28,42.28Z"/><path class="cls-5" d="M28,29.8h0a1.54,1.54,0,0,1,.89.44,12,12,0,0,1,2.28,2.58l.27.37c.49.67,1,1.43,1,2.06h0c-.14,1-3.32,5.8-4.41,6.75-1.1-1-4.28-5.77-4.41-6.75-.09-.63.47-1.39,1-2.06l.26-.37a12.61,12.61,0,0,1,2.28-2.58A1.6,1.6,0,0,1,28,29.8m0-.57h0a2.07,2.07,0,0,0-1.24.57,12.78,12.78,0,0,0-2.38,2.69l-.26.36A3.75,3.75,0,0,0,23,35.31c.16,1.17,3.44,6.09,4.6,7.11a.56.56,0,0,0,.75,0c1.16-1,4.43-5.93,4.59-7.11a3.74,3.74,0,0,0-1.06-2.46l0-.07-.21-.29a13.07,13.07,0,0,0-2.38-2.69A2.07,2.07,0,0,0,28,29.24H28Z"/><path class="cls-6" d="M25.7,16.46a7.58,7.58,0,0,1,3-3.4,6.66,6.66,0,0,1,5.81-.9,2.24,2.24,0,0,0-.64-2.66A1.42,1.42,0,0,0,32,9.35l-1.23,1.16L30.7,8.82a1.68,1.68,0,0,0-1.52-1.75A1.86,1.86,0,0,0,27.13,8.4l-.66,2.38-.81-2.34a2.52,2.52,0,0,0-2.41-1.75,4.26,4.26,0,0,0-.5.06,1.3,1.3,0,0,0-.88.72h0c-.57,1-.47,2.75.29,4.56A11.68,11.68,0,0,0,25.7,16.46Z"/><path d="M21.22,29.61h0a1.23,1.23,0,0,0,1.27-1.18,1.22,1.22,0,0,0-1.18-1.26.14.14,0,0,0-.09,0h0A1.22,1.22,0,0,0,20,28.34a1.23,1.23,0,0,0,1.17,1.27Z"/><path class="cls-2" d="M34.57,27.17a1.21,1.21,0,0,0-1.22,1.21h0a1.22,1.22,0,1,0,1.22-1.23Z"/></g></g></g></svg>