<?xml version="1.0" standalone="no"?>
<!DOCTYPE svg PUBLIC "-//W3C//DTD SVG 20010904//EN"
 "http://www.w3.org/TR/2001/REC-SVG-20010904/DTD/svg10.dtd">
<svg version="1.0" xmlns="http://www.w3.org/2000/svg"
 width="1280.000000pt" height="1280.000000pt" viewBox="0 0 1280.000000 1280.000000"
 preserveAspectRatio="xMidYMid meet">
<metadata>
Created by potrace 1.11, written by Peter Selinger 2001-2013
</metadata>
<g transform="translate(0.000000,1280.000000) scale(0.100000,-0.100000)"
fill="#000000" stroke="none">
<path d="M4995 12794 c-105 -17 -208 -50 -289 -92 -247 -129 -413 -407 -461
-770 -39 -292 1 -610 121 -970 30 -90 54 -166 54 -170 0 -4 -24 -20 -53 -36
-88 -49 -257 -165 -357 -245 -386 -309 -720 -755 -962 -1286 -303 -667 -482
-1389 -658 -2655 -97 -695 -203 -1280 -345 -1895 -126 -547 -185 -857 -210
-1106 -18 -179 -19 -275 -4 -407 43 -398 196 -699 603 -1187 123 -148 509
-535 671 -674 543 -464 1156 -822 1780 -1042 297 -104 680 -192 1005 -231 268
-32 762 -32 1030 0 1047 125 2034 596 2914 1393 543 492 954 1032 1080 1419
57 178 71 276 71 520 -1 318 -45 578 -239 1400 -120 508 -233 1153 -351 1994
-159 1134 -357 1893 -660 2532 -263 555 -635 1017 -1059 1318 -53 37 -96 69
-96 71 0 1 11 29 26 60 52 119 69 215 68 395 -1 145 -4 177 -26 260 -97 359
-372 645 -703 730 -86 23 -231 30 -345 18 l-65 -7 -47 97 c-83 172 -214 301
-392 387 -142 68 -202 80 -401 79 -142 0 -183 -4 -247 -22 -150 -41 -317 -134
-407 -226 l-44 -45 -87 83 c-219 208 -448 304 -745 311 -77 2 -153 1 -170 -1z
m2858 -2275 c424 -65 1000 -553 1362 -1154 239 -396 489 -1124 629 -1830 39
-197 108 -631 156 -990 98 -729 201 -1285 386 -2085 147 -635 179 -835 178
-1120 0 -186 -2 -201 -31 -312 -56 -211 -156 -388 -365 -649 -509 -636 -1138
-1144 -1868 -1508 -485 -242 -922 -371 -1480 -438 -180 -21 -650 -24 -815 -5
-405 47 -792 143 -1175 293 -158 61 -496 229 -662 327 -608 363 -1178 867
-1579 1397 -280 369 -359 589 -346 965 6 184 37 372 134 800 82 364 232 1099
283 1390 22 124 70 425 105 670 85 583 147 974 196 1234 102 539 270 1080 488
1566 186 416 476 799 823 1086 113 94 318 234 342 234 2 0 39 -53 82 -117 248
-378 619 -760 986 -1016 115 -80 363 -238 448 -286 l42 -23 -9 148 c-11 201
-8 309 11 382 44 172 236 445 429 611 268 229 564 374 876 426 96 16 281 18
374 4z"/>
<path d="M4460 6774 c-156 -41 -260 -189 -248 -349 7 -78 35 -141 89 -200 61
-66 123 -95 230 -106 139 -14 233 14 313 94 55 55 81 105 95 180 19 104 -16
214 -92 291 -57 57 -108 82 -188 96 -84 13 -132 12 -199 -6z"/>
<path d="M8179 6780 c-178 -31 -304 -213 -269 -388 25 -119 102 -212 209 -253
77 -29 195 -24 266 11 113 55 178 156 183 285 3 63 -1 92 -17 136 -55 146
-216 237 -372 209z"/>
<path d="M6285 6454 c-108 -24 -218 -81 -335 -174 -126 -101 -306 -274 -405
-390 -217 -257 -580 -771 -646 -917 -43 -95 -77 -234 -84 -350 -10 -147 18
-244 144 -498 141 -284 332 -610 444 -760 l48 -64 -68 -98 c-173 -247 -342
-536 -419 -716 -64 -148 -78 -223 -78 -402 -1 -144 2 -170 27 -260 95 -345
352 -602 692 -692 85 -22 121 -26 240 -26 120 0 154 4 240 26 110 30 211 75
294 131 29 20 55 36 58 36 2 0 24 -14 49 -30 68 -47 200 -107 289 -132 116
-32 374 -32 490 0 169 47 318 136 441 263 87 92 124 145 180 263 60 127 85
233 91 391 8 218 -29 352 -178 645 -72 142 -203 356 -307 502 -34 48 -62 92
-62 99 0 7 37 71 81 142 253 399 468 807 515 976 24 84 26 105 22 215 -4 96
-11 137 -32 201 -49 144 -188 391 -310 550 -25 33 -72 98 -105 145 -133 189
-446 556 -563 659 -115 102 -255 190 -390 247 -81 34 -254 42 -363 18z m230
-249 c83 -22 160 -59 214 -103 235 -190 489 -471 682 -752 32 -47 98 -141 148
-210 210 -292 268 -480 205 -668 -105 -316 -678 -1220 -1060 -1672 -147 -174
-202 -220 -266 -220 -76 0 -125 38 -267 210 -460 554 -1038 1485 -1093 1757
-22 111 28 290 126 447 25 40 92 136 148 214 57 77 131 180 165 228 133 190
341 419 535 590 120 106 198 154 291 179 69 18 101 18 172 0z m778 -3232 c97
-150 202 -329 184 -312 -4 3 -51 77 -105 165 -54 87 -106 171 -116 187 -10 15
-16 27 -12 27 3 0 25 -30 49 -67z m-897 -1230 c-14 -16 -35 -39 -47 -53 l-21
-25 17 30 c22 38 56 75 68 75 5 0 -3 -12 -17 -27z m859 -343 c-3 -5 -12 -10
-18 -10 -7 0 -6 4 3 10 19 12 23 12 15 0z m-45 -20 c-8 -5 -19 -10 -25 -10 -5
0 -3 5 5 10 8 5 20 10 25 10 6 0 3 -5 -5 -10z m-43 -16 c-3 -3 -12 -4 -19 -1
-8 3 -5 6 6 6 11 1 17 -2 13 -5z m-40 -10 c-3 -3 -12 -4 -19 -1 -8 3 -5 6 6 6
11 1 17 -2 13 -5z m-69 -11 c-10 -2 -26 -2 -35 0 -10 3 -2 5 17 5 19 0 27 -2
18 -5z"/>
</g>
</svg>
