<svg id="Horizontal" xmlns="http://www.w3.org/2000/svg" viewBox="0 0 195.51 275.28"><defs><style>.cls-1{fill:#020303;}.cls-2{fill:#fff8ea;}.cls-3{fill:#efae1e;}.cls-4{fill:#eeae1f;}.cls-5{fill:#e03028;}</style></defs><title>ThangsWangsChicken</title><path class="cls-1" d="M130.72,435.28c-50.18,0-84.12-38.63-93-53.51-7.5-12.62-5.06-23.36-.64-42.86l0-.16a447.25,447.25,0,0,0,8.2-44.32C50.22,257,58.84,220.09,88.68,203.7a2.24,2.24,0,0,0,1-2.81c-5.1-12.66-5.51-24.56-1.12-32.65,2.35-4.31,6-7.1,10.16-7.85A23.69,23.69,0,0,1,103,160a21.84,21.84,0,0,1,17,8,2.29,2.29,0,0,0,1.68.82h.06a2.26,2.26,0,0,0,1.66-.73,18.82,18.82,0,0,1,13.77-5.92,17.87,17.87,0,0,1,2.08.12,16.35,16.35,0,0,1,14.09,11,2.25,2.25,0,0,0,2.12,1.5,2.32,2.32,0,0,0,.58-.08,14.12,14.12,0,0,1,3.63-.47,17.89,17.89,0,0,1,11,4.13c5.55,4.46,10.32,13.69,5.45,25a2.24,2.24,0,0,0,.84,2.76c26.62,17.46,34.56,52.76,39.18,88.31a440.77,440.77,0,0,0,8.14,44.09s.08.33.08.35c4.3,18.86,6.89,30.25-.62,42.9C214.83,396.65,180.87,435.28,130.72,435.28Z" transform="translate(-32.94 -160)"/><path class="cls-1" d="M96.42,198.6c-4.51-10.79-5.15-21-1.71-27.28h0c.92-1.7,2.6-3.83,5.25-4.3a17.43,17.43,0,0,1,3-.28,15,15,0,0,1,14.37,10.41l4.87,14,3.94-14.31c1.71-6.21,7.54-8.47,12.25-7.91,2,.22,8.71,1.68,9.06,10.47l.41,10.09,7.36-6.92c3.12-2.93,7.89-1.59,11,.91,3.85,3.08,6.52,8.71,3.79,15.91-11-3.78-23.4-1.9-34.7,5.4-8.46,5.46-14.94,13.07-17.74,20.36C111.43,220.27,101.62,211.05,96.42,198.6Z" transform="translate(-32.94 -160)"/><path class="cls-1" d="M43.74,340.63a446.83,446.83,0,0,0,8.37-45.12C56.73,260,64.8,225.17,91.58,210.19c10,17.09,26,26.93,26.7,27.4l7.4,4.5-.36-8.64c-.22-5.1,5.36-14.13,15.05-20.4,5.45-3.51,15.88-8.43,27.17-4.27a5.71,5.71,0,0,0,.77.51c28.07,14.47,36.3,50,41,86.22a451.26,451.26,0,0,0,8.36,45.12c4.32,18.91,6.28,27.55.2,37.78h0c-7.75,13-40.36,50.13-87.17,50.13S51.3,391.42,43.56,378.41C37.47,368.18,39.43,359.54,43.74,340.63Z" transform="translate(-32.94 -160)"/><path class="cls-2" d="M130.72,430.78a90.45,90.45,0,0,1-9.88-.54A98.45,98.45,0,0,1,85.3,419a123.94,123.94,0,0,1-26.22-18.86,108.42,108.42,0,0,1-15.54-17.66,33.57,33.57,0,0,1-5.17-10.58c-1.46-5.58-.86-11.31-.17-15.68.82-5.23,2-10.43,3.19-15.47.32-1.36.63-2.72.94-4.08C43.86,330,45,324.46,46,319.37c1.43-7.46,2.53-15.13,3.58-22.55,1-6.67,1.93-13.56,3.17-20.32,2.85-15.71,6.25-27.31,11-37.63,5.66-12.23,13.19-21.63,22.38-28,.66-.45,1.32-.89,2-1.31a4,4,0,0,0,.4-.27,7.9,7.9,0,0,1,1.78-1A2.37,2.37,0,0,1,91.5,208a2.29,2.29,0,0,1,1.76.83l.13.13a3.24,3.24,0,0,1,.59.87l.68,1.11c.45.71.92,1.41,1.39,2.11a78.15,78.15,0,0,0,6.06,7.71,88.34,88.34,0,0,0,11.68,10.9,98.92,98.92,0,0,0,9.47,6.35l-.07-1.57c0-1-.1-2-.12-2.93a15.38,15.38,0,0,1,1.87-7.17c3.54-7.18,9.59-12.15,14-15.05A36.77,36.77,0,0,1,157.61,205l1,0a27.75,27.75,0,0,1,5.33.51,36.36,36.36,0,0,1,5.86,2.07,57.68,57.68,0,0,1,7.83,5c8.88,6.79,16.1,16.72,21.48,29.51,5.74,13.65,8.56,28,10.38,39,.73,4.41,1.35,8.9,1.94,13.23.41,3,.81,6,1.26,9,1,7,2.31,14.09,3.77,21.2,1.2,5.87,2.57,11.87,3.77,17.16l.54,2.35a115.18,115.18,0,0,1,3.11,17.61,30.19,30.19,0,0,1-2.49,15.06,48.25,48.25,0,0,1-5.35,8.51,119.91,119.91,0,0,1-18,18.92,118.66,118.66,0,0,1-28.87,18.39A94.45,94.45,0,0,1,130.72,430.78Z" transform="translate(-32.94 -160)"/><path class="cls-2" d="M130.72,428.54a92.93,92.93,0,0,0,37.53-8.16,122.09,122.09,0,0,0,46-36.6,45.92,45.92,0,0,0,5.11-8.11,27.91,27.91,0,0,0,2.29-13.95c-.47-6.63-2.13-13.16-3.6-19.62-1.3-5.73-2.61-11.46-3.78-17.21q-2.17-10.61-3.79-21.32c-1.11-7.39-2-14.81-3.2-22.18-2.17-13.09-5.08-26.22-10.23-38.48-4.61-11-11.24-21.3-20.78-28.6a55.77,55.77,0,0,0-7.52-4.81,36.71,36.71,0,0,0-5.22-1.85,26.43,26.43,0,0,0-5.82-.45,34.67,34.67,0,0,0-17.48,6c-5.39,3.51-10.38,8.34-13.25,14.17a13.45,13.45,0,0,0-1.64,6.12c0,1.44.12,2.88.18,4.32l.18,4.32a138.56,138.56,0,0,1-13.27-8.66,91.11,91.11,0,0,1-12-11.18,78.38,78.38,0,0,1-6.24-7.94c-.49-.72-1-1.45-1.44-2.18L92.07,211a3.82,3.82,0,0,0-.29-.48c-.46-.47-.1-.24-.6-.1a8.46,8.46,0,0,0-1.84,1.1c-.65.4-1.29.82-1.91,1.25-9.72,6.68-16.71,16.44-21.62,27C60.39,251.54,57.26,264.23,55,276.9c-2.6,14.25-4,28.67-6.75,42.9-1.12,5.82-2.38,11.62-3.69,17.41-1.46,6.44-3.08,12.87-4.1,19.4-.77,4.88-1.14,9.93.12,14.76a31.81,31.81,0,0,0,4.85,9.88,106.47,106.47,0,0,0,15.23,17.28,121.06,121.06,0,0,0,25.74,18.52,96.49,96.49,0,0,0,34.72,11A88.69,88.69,0,0,0,130.72,428.54Z" transform="translate(-32.94 -160)"/><path class="cls-2" d="M131.28,390.3a9.7,9.7,0,0,1-5.8-2A36.45,36.45,0,0,1,120,383,164.26,164.26,0,0,1,107,365.19a147.76,147.76,0,0,1-10.83-18.92,26.49,26.49,0,0,1-2.33-6.75c-.76-4.9.73-10.19,4.57-16.16,2.66-4.15,5.8-8.52,9.31-13A66.8,66.8,0,0,1,119.9,298a19.33,19.33,0,0,1,11.51-4.23,15.06,15.06,0,0,1,4.06.55c5.6,1.54,10,5.72,13.68,9.51a104.19,104.19,0,0,1,10.4,12.95c.49.7,1,1.39,1.49,2.09,2.57,3.57,5.22,7.25,6.73,11.64a19.18,19.18,0,0,1,1,8.9,24.86,24.86,0,0,1-2.34,6.87c-1.21,2.65-2.64,5.37-4.62,8.83a211,211,0,0,1-12.73,19.55c-2.37,3.24-4.41,5.84-6.41,8.16a36.33,36.33,0,0,1-5.52,5.5A9.65,9.65,0,0,1,131.28,390.3Z" transform="translate(-32.94 -160)"/><path class="cls-2" d="M166.54,339.08a23.19,23.19,0,0,1-2.17,6.25c-1.35,3-2.91,5.82-4.52,8.64a208.49,208.49,0,0,1-12.59,19.33c-2,2.75-4.08,5.45-6.3,8a35.16,35.16,0,0,1-5.18,5.17,7.28,7.28,0,0,1-9,0,34.29,34.29,0,0,1-5.09-5.06A161.36,161.36,0,0,1,108.86,364,143.67,143.67,0,0,1,98.2,345.33,24.2,24.2,0,0,1,96,339.18c-.81-5.24,1.48-10.31,4.24-14.61s6-8.71,9.19-12.83a64.82,64.82,0,0,1,11.78-12c3.94-3,8.72-4.67,13.62-3.31s9.14,5.27,12.67,8.9A102.51,102.51,0,0,1,157.71,318c2.94,4.19,6.25,8.27,7.94,13.18A17.08,17.08,0,0,1,166.54,339.08Z" transform="translate(-32.94 -160)"/><path class="cls-2" d="M170.61,306.07a9.61,9.61,0,0,1-6.35-16.7,9.18,9.18,0,0,1,6.17-2.37,10,10,0,0,1,7.52,3.52,9.19,9.19,0,0,1,2.08,7.57A9.64,9.64,0,0,1,170.61,306.07Z" transform="translate(-32.94 -160)"/><path class="cls-2" d="M170.61,303.82c-6.58,0-9.77-8.4-4.85-12.77s13.16,0,12.05,6.67A7.37,7.37,0,0,1,170.61,303.82Z" transform="translate(-32.94 -160)"/><path class="cls-2" d="M91,306a10,10,0,0,1-7.52-3.5,9.24,9.24,0,0,1-2.08-7.59,9.63,9.63,0,0,1,9.41-8,9.5,9.5,0,0,1,8.9,6.34A9.39,9.39,0,0,1,97,303.78,9.18,9.18,0,0,1,91,306Z" transform="translate(-32.94 -160)"/><path class="cls-2" d="M90.82,289.21c6.62,0,9.85,8.52,4.76,12.86s-13-.18-12-6.77A7.36,7.36,0,0,1,90.82,289.21Z" transform="translate(-32.94 -160)"/><path class="cls-1" d="M159.18,320.11,157.71,318h0c-3.89-5.59-8.73-12-15.22-17.34-2.48-2-6.31-4.66-10.92-4.72-.06,0-.11,0-.17,0h-.24l-.15,0c-4.71,0-8.47,2.7-10.95,4.72-6.47,5.3-11.31,11.73-15.2,17.34-.47.67-1,1.35-1.48,2.07-3.72,5.15-8.36,11.55-7.35,19,1.26,9.2,24.13,43.81,31.78,48.11a6.41,6.41,0,0,0,3.17.9c.11,0,.19,0,.3,0s.19,0,.3,0a6.39,6.39,0,0,0,3.17-.9c7.66-4.3,30.52-38.91,31.79-48.11C167.54,331.66,162.91,325.26,159.18,320.11Zm-1.55,17.44h0c-.81,5.88-19.79,34.69-26.35,40.43-6.55-5.74-25.54-34.55-26.35-40.43-.52-3.75,2.8-8.29,5.74-12.3.55-.75,1.1-1.5,1.6-2.21,3.56-5.07,8-10.87,13.61-15.44,2.2-1.78,4-2.68,5.34-2.66h.14c1.37,0,3.13.86,5.34,2.66,5.65,4.57,10.05,10.37,13.61,15.44l1.6,2.21C154.83,329.25,158.15,333.79,157.63,337.55Z" transform="translate(-32.94 -160)"/><path class="cls-3" d="M131.28,380.78a2.82,2.82,0,0,1-1.85-.69C121.3,373,103,343.81,102.15,337.93c-.68-4.87,3-9.89,6.24-14.33.56-.75,1.08-1.47,1.57-2.16,3.69-5.25,8.25-11.24,14.15-16,2.77-2.24,5-3.29,7.06-3.29h.21c2.08,0,4.4,1.1,7.09,3.29,5.91,4.78,10.46,10.77,14.14,16l1.24,1.72.33.46c3.25,4.44,6.91,9.45,6.24,14.33-.82,5.88-19.15,35-27.29,42.16A2.82,2.82,0,0,1,131.28,380.78Z" transform="translate(-32.94 -160)"/><path class="cls-4" d="M131.17,304.94h.19c1.37,0,3.13.86,5.34,2.66,5.65,4.57,10.05,10.37,13.61,15.44l1.6,2.21c2.92,4,6.24,8.54,5.72,12.3h0c-.81,5.88-19.79,34.69-26.35,40.43-6.55-5.74-25.54-34.55-26.35-40.43-.52-3.75,2.8-8.29,5.74-12.3.55-.75,1.1-1.5,1.6-2.21,3.56-5.07,8-10.87,13.61-15.44,2.17-1.76,3.94-2.66,5.29-2.66m0-5.62h0c-2.72,0-5.53,1.25-8.83,3.91-6.17,5-10.88,11.19-14.67,16.57-.48.7-1,1.4-1.52,2.11-3.58,4.9-7.62,10.41-6.78,16.41.64,4.63,6.81,14.83,11.88,22.57,5.21,7.95,12.23,17.72,16.33,21.31a5.62,5.62,0,0,0,7.4,0c4.11-3.59,11.13-13.36,16.33-21.31,5.07-7.74,11.25-17.94,11.89-22.57.83-6-3.19-11.51-6.73-16.36l-.34-.46c-.42-.58-.84-1.15-1.22-1.7-3.79-5.38-8.5-11.56-14.67-16.57-3.25-2.64-6.06-3.88-8.83-3.91h-.24Z" transform="translate(-32.94 -160)"/><path class="cls-5" d="M117.61,227.41a2.21,2.21,0,0,1-1.39-.48c-5.8-4.6-16.36-14.27-21.88-27.46-4.76-11.41-5.36-22.34-1.6-29.22a10,10,0,0,1,6.82-5.45,20.62,20.62,0,0,1,3.43-.31,17.11,17.11,0,0,1,16.49,11.93l2.5,7.19,2-7.34c1.95-7.12,8.24-9.65,13-9.65a12.83,12.83,0,0,1,1.65.1c5.12.57,10.71,4.18,11,12.61l.21,5.17,3.79-3.55a8.38,8.38,0,0,1,5.87-2.27,13.29,13.29,0,0,1,8.07,3.07c4.26,3.4,7.69,10,4.5,18.45a2.26,2.26,0,0,1-2.1,1.46,2,2,0,0,1-.73-.13,33.07,33.07,0,0,0-10.75-1.78,40.84,40.84,0,0,0-22,6.94C128.7,211.77,122.4,219,119.71,226a2.22,2.22,0,0,1-1.5,1.36A2.06,2.06,0,0,1,117.61,227.41Z" transform="translate(-32.94 -160)"/><path class="cls-5" d="M116.22,226.93c-5.8-4.6-16.36-14.27-21.88-27.46-4.76-11.41-5.36-22.34-1.6-29.22a10,10,0,0,1,6.82-5.45,20.62,20.62,0,0,1,3.43-.31,17.11,17.11,0,0,1,16.49,11.93l2.5,7.19,2-7.34c1.95-7.12,8.24-9.65,13-9.65a12.83,12.83,0,0,1,1.65.1c5.12.57,10.71,4.18,11,12.61l.21,5.17,3.79-3.55a8.38,8.38,0,0,1,5.87-2.27,13.29,13.29,0,0,1,8.07,3.07c4.26,3.4,7.69,10,4.5,18.45l-.77,2-2.06-.71a33.07,33.07,0,0,0-10.75-1.78,40.84,40.84,0,0,0-22,6.94C128.7,211.77,122.4,219,119.71,226l-1.1,2.86Z" transform="translate(-32.94 -160)"/><path class="cls-5" d="M117.61,225.17c2.8-7.29,9.28-14.9,17.74-20.36,11.3-7.3,23.7-9.18,34.7-5.4,2.73-7.2.06-12.83-3.79-15.91-3.12-2.5-7.89-3.84-11-.91l-7.36,6.92-.41-10.09c-.35-8.79-7-10.25-9.06-10.47-4.71-.56-10.54,1.7-12.25,7.91l-3.94,14.31-4.87-14A15,15,0,0,0,103,166.74a17.43,17.43,0,0,0-3,.28c-2.65.47-4.33,2.6-5.25,4.3h0c-3.44,6.3-2.8,16.49,1.71,27.28C101.62,211.05,111.43,220.27,117.61,225.17Z" transform="translate(-32.94 -160)"/><path class="cls-1" d="M90.84,303.82h0a7.31,7.31,0,0,0,0-14.61h0a7.31,7.31,0,0,0,0,14.61Z" transform="translate(-32.94 -160)"/><path class="cls-1" d="M170.61,289.21a7.29,7.29,0,0,0-7.3,7.3v0a7.3,7.3,0,1,0,7.3-7.32Z" transform="translate(-32.94 -160)"/></svg>