<svg xmlns="http://www.w3.org/2000/svg" viewBox="0 0 179 250"><defs><style>.cls-1{fill:#010202;}.cls-2{fill:#fff;}.cls-3{fill:#e03228;}.cls-4{fill:#f9a31a;}.cls-5{fill:#df2e27;}</style></defs><title>TransparentThangsWangsChicken</title><g id="Layer_2" data-name="Layer 2"><g id="Horizontal"><path d="M4.57,201.2C12.64,214.77,43.64,250,89.5,250s76.85-35.24,84.93-48.8c7.12-12,4.75-22.45.79-39.8h0a394.18,394.18,0,0,1-7.33-39.52c-4.22-32.43-11.6-64.38-36-80.32,4.47-10.4.76-19.73-5.48-24.73-4.62-3.69-10.1-4.92-14.85-3.64A16.67,16.67,0,0,0,97.32,2a18.88,18.88,0,0,0-15.9,5.83A21.71,21.71,0,0,0,60.5.38a15,15,0,0,0-10.5,8c-4.24,7.79-3.88,19,.9,30.88-27.41,15-35.36,48.51-39.79,82.57A397.93,397.93,0,0,1,3.78,161.4C-.17,178.76-2.56,189.23,4.57,201.2Z"/><path d="M89.5,248c-44.92,0-75.28-34.51-83.2-47.81-6.71-11.28-4.53-20.88-.57-38.3l0-.14a395.76,395.76,0,0,0,7.34-39.61C17.45,88.68,25.16,55.7,51.87,41.06a2,2,0,0,0,.9-2.51c-4.57-11.32-4.93-21.95-1-29.17a13.11,13.11,0,0,1,9.09-7A21.41,21.41,0,0,1,64.67,2,19.58,19.58,0,0,1,79.86,9.12a2,2,0,0,0,1.51.74h0A2,2,0,0,0,82.9,9.2,16.89,16.89,0,0,1,95.23,3.91,16.44,16.44,0,0,1,97.09,4a14.64,14.64,0,0,1,12.61,9.83,2,2,0,0,0,1.89,1.34,1.93,1.93,0,0,0,.53-.07,12.46,12.46,0,0,1,3.24-.42,16,16,0,0,1,9.84,3.69c5,4,9.24,12.23,4.88,22.36a2,2,0,0,0,.75,2.48c23.83,15.6,30.93,47.14,35.06,78.9a396.46,396.46,0,0,0,7.29,39.4l.07.31c3.85,16.86,6.17,27-.55,38.34C164.78,213.47,134.38,248,89.5,248Z"/><path class="cls-1" d="M58.8,36.51c-4-9.65-4.61-18.75-1.53-24.38h0A7,7,0,0,1,62,8.28,15.8,15.8,0,0,1,64.68,8a13.38,13.38,0,0,1,12.86,9.31L81.9,29.86l3.53-12.78c1.53-5.55,6.75-7.57,11-7.08,1.82.21,7.79,1.51,8.11,9.36l.36,9,6.6-6.19c2.78-2.61,7.06-1.41,9.84.82,3.46,2.75,5.85,7.78,3.4,14.21-9.84-3.37-21-1.69-31.06,4.83-7.56,4.88-13.36,11.68-15.87,18.19C72.24,55.87,63.46,47.62,58.8,36.51Z"/><path class="cls-1" d="M11.66,163.41a397.36,397.36,0,0,0,7.48-40.31C23.28,91.34,30.5,60.24,54.47,46.86c9,15.27,23.22,24.06,23.9,24.48l6.62,4-.32-7.72c-.2-4.56,4.8-12.62,13.47-18.22,4.87-3.14,14.21-7.54,24.32-3.82a4.1,4.1,0,0,0,.69.45C148.26,59,155.63,90.73,159.86,123.1a398.45,398.45,0,0,0,7.48,40.31c3.86,16.91,5.62,24.63.17,33.77h0C160.58,208.8,131.4,242,89.5,242s-71.08-33.17-78-44.79C6,188,7.8,180.32,11.66,163.41Z"/><path class="cls-2" d="M89.5,242a83.35,83.35,0,0,0,33.59-7.29A109.06,109.06,0,0,0,164.24,202a40.75,40.75,0,0,0,4.58-7.24,24.91,24.91,0,0,0,2-12.47c-.42-5.92-1.9-11.76-3.22-17.53-1.16-5.12-2.33-10.24-3.38-15.38q-1.95-9.48-3.39-19c-1-6.6-1.77-13.23-2.86-19.82-1.95-11.7-4.55-23.42-9.17-34.39-4.12-9.8-10.05-19-18.59-25.55a49.33,49.33,0,0,0-6.74-4.3,33.14,33.14,0,0,0-4.67-1.65,23.3,23.3,0,0,0-5.21-.4A31.1,31.1,0,0,0,98,49.51C93.17,52.65,88.7,57,86.13,62.17a12,12,0,0,0-1.46,5.47c0,1.29.11,2.58.16,3.86L85,75.36a120.93,120.93,0,0,1-11.88-7.74,80.38,80.38,0,0,1-10.71-10,70.8,70.8,0,0,1-5.59-7.09c-.44-.64-.86-1.29-1.28-1.95l-.62-1a2.47,2.47,0,0,0-.27-.44c-.4-.42-.08-.21-.53-.09a7.37,7.37,0,0,0-1.65,1q-.87.54-1.71,1.11c-8.69,6-15,14.7-19.34,24.17-4.86,10.48-7.66,21.82-9.72,33.14-2.32,12.73-3.59,25.62-6,38.33-1,5.21-2.13,10.39-3.3,15.56-1.3,5.75-2.75,11.5-3.67,17.33-.69,4.37-1,8.88.11,13.19a28.4,28.4,0,0,0,4.34,8.83,95.3,95.3,0,0,0,13.63,15.45,108.89,108.89,0,0,0,23,16.55,86.78,86.78,0,0,0,31.08,9.79A80.36,80.36,0,0,0,89.5,242Z"/><path d="M120.76,155a15.3,15.3,0,0,1,.8,7,21.08,21.08,0,0,1-1.94,5.59c-1.22,2.64-2.61,5.2-4.05,7.71-2,3.48-4.13,6.87-6.35,10.21,1.9,2.6,3.73,5.37,5.31,8a56.14,56.14,0,0,1,4.48,9,19.82,19.82,0,0,1-.46,14.52,18.83,18.83,0,0,1-10.2,10A18.72,18.72,0,0,1,90,224.51a18.66,18.66,0,0,1-14.91,3.57,19.45,19.45,0,0,1-3.45-1,18.86,18.86,0,0,1-10.21-10,19.85,19.85,0,0,1-.46-14.53,55,55,0,0,1,4.49-9c1.58-2.67,3.42-5.46,5.34-8.08q-.43-.62-.84-1.23a129.54,129.54,0,0,1-9.54-16.65,21.65,21.65,0,0,1-1.92-5.5c-.74-4.68,1.31-9.22,3.79-13.05s5.33-7.78,8.22-11.47A58,58,0,0,1,81,126.91c3.53-2.65,7.82-4.17,12.2-3s8.18,4.7,11.33,8a89.92,89.92,0,0,1,9.1,11.31C116.29,147,119.25,150.62,120.76,155Zm-7.86,60.11a16,16,0,0,0,.25-11.29,50.92,50.92,0,0,0-3.88-7.82c-1-1.73-2.2-3.6-3.48-5.48-.5.7-1,1.41-1.49,2.09-1.8,2.45-3.66,4.87-5.64,7.17A32.61,32.61,0,0,1,94,204.41a6.54,6.54,0,0,1-8,0,29.47,29.47,0,0,1-4.55-4.52c-2.6-3-5-6.16-7.29-9.41-1.28,1.89-2.47,3.76-3.5,5.5a51.86,51.86,0,0,0-3.88,7.81,16.16,16.16,0,0,0,.25,11.29,13.61,13.61,0,0,0,7.36,7.71,10.94,10.94,0,0,0,6.92.48c2.27-.57,3.91-2,5.66-3.92.57-.65,2.05-4,3-4s2.45,3.37,3,4c1.76,2,3.34,3.35,5.6,3.93a11,11,0,0,0,6.93-.49A13.63,13.63,0,0,0,112.9,215.11Z"/><path class="cls-3" d="M113.15,203.82a16,16,0,0,1-.25,11.29,13.63,13.63,0,0,1-7.35,7.71,11,11,0,0,1-6.93.49c-2.26-.58-3.84-2-5.6-3.93-.57-.65-2-4-3-4s-2.44,3.37-3,4c-1.75,2-3.39,3.35-5.66,3.92a10.94,10.94,0,0,1-6.92-.48,13.61,13.61,0,0,1-7.36-7.71,16.16,16.16,0,0,1-.25-11.29A51.86,51.86,0,0,1,70.68,196c1-1.74,2.22-3.61,3.5-5.5,2.3,3.25,4.69,6.42,7.29,9.41A29.47,29.47,0,0,0,86,204.44a6.54,6.54,0,0,0,8,0,32.61,32.61,0,0,0,4.62-4.63c2-2.3,3.84-4.72,5.64-7.17.51-.68,1-1.39,1.49-2.09,1.28,1.88,2.45,3.75,3.48,5.48A50.92,50.92,0,0,1,113.15,203.82Z"/><path class="cls-4" d="M90,198.29a1.51,1.51,0,0,1-1-.37c-5.86-5.11-23.27-31.12-24.09-37-.55-4,2.61-8.26,5.4-12.07.5-.68,1-1.33,1.42-2,3.26-4.63,7.28-9.91,12.47-14.1,2.29-1.85,4.09-2.71,5.68-2.71h.18c1.62,0,3.49.9,5.72,2.71,5.18,4.19,9.21,9.47,12.46,14.09l1.15,1.6.27.36c2.79,3.82,5.94,8.13,5.39,12.08-.82,5.92-18.23,31.93-24.08,37A1.54,1.54,0,0,1,90,198.29Z"/><path class="cls-4" d="M89.9,131.53h.17c1.22,0,2.81.77,4.78,2.37,5.06,4.09,9,9.27,12.18,13.79.45.64.94,1.3,1.44,2,2.61,3.58,5.58,7.63,5.12,11h0c-.73,5.26-17.72,31-23.59,36.13-5.87-5.13-22.85-30.87-23.58-36.13-.47-3.35,2.51-7.4,5.13-11,.5-.67,1-1.33,1.43-2,3.19-4.52,7.13-9.7,12.18-13.79,2-1.57,3.53-2.37,4.74-2.37m0-3h0c-2,0-4.05,1-6.62,3-5.33,4.31-9.44,9.7-12.75,14.4-.44.63-.91,1.27-1.39,1.92-3,4.06-6.33,8.64-5.69,13.19.86,6.25,18.37,32.54,24.58,38a3,3,0,0,0,4,0c6.21-5.43,23.71-31.72,24.58-38,.63-4.55-2.71-9.12-5.66-13.15l-.3-.41c-.39-.53-.76-1-1.11-1.54-3.31-4.7-7.42-10.09-12.75-14.4-2.5-2-4.67-3-6.64-3h-.2Z"/><path class="cls-5" d="M77.77,60.24c2.51-6.51,8.31-13.31,15.87-18.19,10.11-6.52,21.22-8.2,31.06-4.83,2.45-6.43.06-11.46-3.4-14.21-2.78-2.23-7.06-3.43-9.84-.82l-6.6,6.19-.36-9c-.32-7.85-6.29-9.15-8.11-9.36-4.21-.49-9.43,1.53-11,7.08L81.9,29.86,77.54,17.34A13.38,13.38,0,0,0,64.68,8,15.8,15.8,0,0,0,62,8.28a7,7,0,0,0-4.7,3.85h0c-3.08,5.63-2.51,14.73,1.53,24.38C63.46,47.62,72.24,55.87,77.77,60.24Z"/><path d="M53.81,130.52h0a6.53,6.53,0,1,0,0-13.05h0a6.53,6.53,0,1,0,0,13.05Z"/><path class="cls-1" d="M125.2,117.47a6.52,6.52,0,0,0-6.54,6.52v0a6.54,6.54,0,1,0,6.54-6.54Z"/></g></g></svg>
