<svg id="Vertical" xmlns="http://www.w3.org/2000/svg" viewBox="0 0 571.99 544.75"><defs><style>.cls-1{fill:#020303;}.cls-2{fill:#fff8ea;}.cls-3{fill:#faa41a;}.cls-4{fill:#e03028;}.cls-5{fill:#e03127;}.cls-6{fill:#221f1f;}.cls-7{fill:#e03228;}</style></defs><title>ThangsWangsLogoVertical</title><path class="cls-1" d="M302.38,314.29c11.27,19,54.56,68.26,118.6,68.26s107.34-49.29,118.62-68.26c9.95-16.75,6.63-31.41,1.1-55.68h0a550.17,550.17,0,0,1-10.23-55.28C524.58,158,514.27,113.26,480.25,91c6.23-14.54,1.06-27.59-7.65-34.58-6.46-5.18-14.11-6.89-20.75-5.1-3.07-8.65-10.3-14.49-19.94-15.61a26.37,26.37,0,0,0-22.21,8.15,30.35,30.35,0,0,0-29.22-10.45c-6.11,1.1-11.31,5.1-14.66,11.25-5.92,10.9-5.43,26.6,1.26,43.2-38.29,21-49.39,67.86-55.58,115.51a552.88,552.88,0,0,1-10.24,55.29C295.75,282.89,292.41,297.54,302.38,314.29Z" transform="translate(-135.65 -32.83)"/><path class="cls-1" d="M421,379.74c-62.73,0-105.14-48.28-116.19-66.89-9.38-15.77-6.33-29.19-.8-53.56l.05-.2a557.6,557.6,0,0,0,10.24-55.41c6.08-46.8,16.85-92.93,54.15-113.41a2.81,2.81,0,0,0,1.26-3.51c-6.38-15.83-6.89-30.71-1.4-40.81,2.93-5.39,7.44-8.88,12.69-9.82a30.2,30.2,0,0,1,5.33-.49,27.33,27.33,0,0,1,21.22,10,2.8,2.8,0,0,0,2.1,1h.07a2.81,2.81,0,0,0,2.08-.92A23.52,23.52,0,0,1,429,38.3a22.28,22.28,0,0,1,2.6.15c8.45,1,14.86,6,17.62,13.76a2.82,2.82,0,0,0,2.65,1.87,2.67,2.67,0,0,0,.73-.1,17.42,17.42,0,0,1,4.53-.59,22.32,22.32,0,0,1,13.73,5.17c7,5.57,12.91,17.11,6.83,31.28a2.81,2.81,0,0,0,1,3.46c33.28,21.83,43.21,66,49,110.38a552,552,0,0,0,10.18,55.11s.1.42.1.44c5.38,23.58,8.62,37.81-.77,53.62C526.12,331.46,483.67,379.74,421,379.74Z" transform="translate(-135.65 -32.83)"/><path class="cls-1" d="M378.11,83.9c-5.64-13.5-6.44-26.23-2.14-34.1h0c1.16-2.13,3.25-4.79,6.57-5.39a22.34,22.34,0,0,1,3.79-.34,18.7,18.7,0,0,1,18,13l6.08,17.51,4.93-17.87c2.13-7.77,9.42-10.59,15.31-9.9,2.54.28,10.89,2.1,11.32,13.09l.51,12.61,9.21-8.65c3.9-3.66,9.86-2,13.76,1.14,4.82,3.85,8.16,10.89,4.74,19.89-13.75-4.73-29.26-2.37-43.38,6.74C416.2,98.48,408.1,108,404.6,117.1,396.88,111,384.61,99.45,378.11,83.9Z" transform="translate(-135.65 -32.83)"/><path class="cls-1" d="M312.27,261.43A562.14,562.14,0,0,0,322.72,205c5.78-44.42,15.86-87.92,49.34-106.65,12.54,21.36,32.43,33.67,33.38,34.25l9.25,5.63-.45-10.8c-.27-6.38,6.7-17.66,18.81-25.5,6.81-4.39,19.85-10.54,34-5.34a5.68,5.68,0,0,0,1,.63c35.08,18.1,45.37,62.5,51.27,107.78a564.36,564.36,0,0,0,10.45,56.4c5.4,23.64,7.85,34.44.25,47.23h0c-9.69,16.26-50.45,62.66-109,62.66S321.71,324.92,312,308.66C304.42,295.88,306.87,285.08,312.27,261.43Z" transform="translate(-135.65 -32.83)"/><path class="cls-2" d="M421,371.32a116.11,116.11,0,0,0,46.91-10.2,152.69,152.69,0,0,0,57.48-45.75,57.72,57.72,0,0,0,6.38-10.13,34.82,34.82,0,0,0,2.86-17.45c-.59-8.28-2.66-16.45-4.5-24.52-1.63-7.16-3.25-14.32-4.73-21.51q-2.7-13.26-4.73-26.65c-1.38-9.24-2.47-18.52-4-27.73-2.72-16.36-6.36-32.77-12.8-48.1-5.76-13.71-14.05-26.62-26-35.74a69.2,69.2,0,0,0-9.41-6A45.27,45.27,0,0,0,462,95.21a32.87,32.87,0,0,0-7.28-.56c-7.8.27-15.36,3.21-21.84,7.44-6.74,4.4-13,10.43-16.57,17.71a16.78,16.78,0,0,0-2,7.66c0,1.8.15,3.6.22,5.4l.23,5.4a171.71,171.71,0,0,1-16.59-10.83,114.43,114.43,0,0,1-15-14,99.6,99.6,0,0,1-7.8-9.93c-.61-.9-1.21-1.8-1.79-2.72l-.87-1.41a4.08,4.08,0,0,0-.36-.61c-.57-.58-.13-.29-.75-.12a10.59,10.59,0,0,0-2.3,1.37c-.81.51-1.61,1-2.39,1.57-12.15,8.34-20.89,20.55-27,33.81-6.78,14.65-10.69,30.52-13.57,46.35-3.24,17.81-5,35.84-8.44,53.62-1.4,7.28-3,14.53-4.6,21.77-1.82,8-3.85,16.09-5.13,24.25-1,6.1-1.43,12.41.15,18.45a40,40,0,0,0,6.06,12.34,133.51,133.51,0,0,0,19,21.61A151.66,151.66,0,0,0,365.53,357a120.88,120.88,0,0,0,43.41,13.7A110.17,110.17,0,0,0,421,371.32Z" transform="translate(-135.65 -32.83)"/><path class="cls-2" d="M421.68,323.53a12.1,12.1,0,0,1-7.24-2.46,44.64,44.64,0,0,1-6.8-6.74,206.26,206.26,0,0,1-16.33-22.2,183.83,183.83,0,0,1-13.53-23.65,32.48,32.48,0,0,1-2.91-8.43c-1-6.13.9-12.74,5.7-20.21,3.33-5.18,7.25-10.65,11.64-16.25a83.67,83.67,0,0,1,15.25-15.48,24.19,24.19,0,0,1,14.38-5.29,19,19,0,0,1,5.09.69c7,1.93,12.49,7.14,17.1,11.88a130,130,0,0,1,13,16.19c.61.87,1.24,1.74,1.87,2.62,3.2,4.45,6.52,9.06,8.41,14.55a23.93,23.93,0,0,1,1.24,11.12,31.35,31.35,0,0,1-2.93,8.58c-1.52,3.32-3.29,6.72-5.78,11.05a261.09,261.09,0,0,1-15.91,24.43c-3,4.06-5.51,7.3-8,10.21A45.72,45.72,0,0,1,429,321,12.07,12.07,0,0,1,421.68,323.53Z" transform="translate(-135.65 -32.83)"/><path class="cls-2" d="M465.75,259.49a29.13,29.13,0,0,1-2.7,7.82c-1.69,3.69-3.63,7.27-5.65,10.79a262,262,0,0,1-15.74,24.17c-2.51,3.44-5.1,6.81-7.88,10a43,43,0,0,1-6.47,6.47,9.11,9.11,0,0,1-11.19.05,43.18,43.18,0,0,1-6.36-6.32,204.09,204.09,0,0,1-16.1-21.9,181.28,181.28,0,0,1-13.33-23.29,30.56,30.56,0,0,1-2.69-7.69c-1-6.55,1.84-12.89,5.3-18.26s7.45-10.89,11.48-16a81.25,81.25,0,0,1,14.73-15c4.93-3.7,10.9-5.82,17-4.14s11.42,6.6,15.83,11.14a126.51,126.51,0,0,1,12.71,15.84c3.68,5.24,7.81,10.34,9.93,16.48A21.3,21.3,0,0,1,465.75,259.49Z" transform="translate(-135.65 -32.83)"/><path class="cls-2" d="M470.85,218.23a12,12,0,0,1-7.93-20.87,11.42,11.42,0,0,1,7.7-3,12.5,12.5,0,0,1,9.41,4.39,11.49,11.49,0,0,1,2.59,9.47A12.05,12.05,0,0,1,470.85,218.23Z" transform="translate(-135.65 -32.83)"/><path class="cls-2" d="M470.85,215.42c-8.22,0-12.22-10.5-6.07-16,6.31-5.6,16.46,0,15.07,8.34A9.22,9.22,0,0,1,470.85,215.42Z" transform="translate(-135.65 -32.83)"/><path class="cls-2" d="M371.35,218.17a12.47,12.47,0,0,1-9.4-4.38,11.55,11.55,0,0,1-2.6-9.48,12,12,0,0,1,11.76-10,11.85,11.85,0,0,1,11.12,7.92,11.71,11.71,0,0,1-3.34,13.09A11.5,11.5,0,0,1,371.35,218.17Z" transform="translate(-135.65 -32.83)"/><path class="cls-2" d="M371.11,197.16c8.27,0,12.31,10.65,5.95,16.07s-16.31-.22-14.94-8.46A9.19,9.19,0,0,1,371.11,197.16Z" transform="translate(-135.65 -32.83)"/><path class="cls-1" d="M456.57,235.78c-.65-.9-1.26-1.75-1.85-2.59h0c-4.86-7-10.92-15-19-21.67-3.1-2.53-7.89-5.83-13.65-5.9-.08,0-.14,0-.21,0h-.3l-.2,0c-5.88,0-10.58,3.37-13.67,5.9-8.1,6.63-14.15,14.67-19,21.67-.59.84-1.2,1.69-1.85,2.59-4.65,6.44-10.45,14.44-9.19,23.71,1.58,11.5,30.17,54.77,39.73,60.14a8,8,0,0,0,4,1.12c.14,0,.24,0,.38,0s.24,0,.37,0a8,8,0,0,0,4-1.12c9.56-5.37,38.15-48.64,39.72-60.14C467,250.22,461.22,242.22,456.57,235.78Zm-1.94,21.8h0c-1,7.35-24.74,43.36-32.94,50.53-8.2-7.17-31.92-43.18-32.94-50.53-.65-4.68,3.5-10.36,7.17-15.37.69-.94,1.38-1.87,2-2.77,4.45-6.33,9.95-13.58,17-19.29,2.76-2.23,5-3.36,6.68-3.33h.08s.06,0,.09,0c1.71,0,3.92,1.08,6.68,3.33,7.06,5.71,12.56,13,17,19.29.62.88,1.3,1.81,2,2.77C451.13,247.21,455.28,252.88,454.63,257.58Z" transform="translate(-135.65 -32.83)"/><path class="cls-3" d="M421.69,311.63a3.48,3.48,0,0,1-2.31-.87c-4.87-4.26-13.71-16.63-19.79-25.92-4-6.18-13.54-21.16-14.32-26.78-.84-6.09,3.75-12.37,7.8-17.91.7-.94,1.36-1.84,2-2.71,4.61-6.56,10.31-14,17.69-20,3.47-2.81,6.27-4.11,8.83-4.11h.26c2.6,0,5.5,1.37,8.87,4.11,7.37,6,13.07,13.46,17.67,20,.49.71,1,1.44,1.58,2.2l.38.52c4.06,5.56,8.64,11.82,7.8,17.92-.78,5.62-10.28,20.6-14.32,26.78-6.09,9.29-14.92,21.66-19.79,25.92A3.5,3.5,0,0,1,421.69,311.63Z" transform="translate(-135.65 -32.83)"/><path class="cls-3" d="M421.55,216.82h.23c1.71,0,3.92,1.08,6.68,3.33,7.06,5.71,12.56,13,17,19.29.62.88,1.3,1.81,2,2.77,3.65,5,7.8,10.67,7.15,15.37h0c-1,7.35-24.74,43.36-32.94,50.53-8.2-7.17-31.92-43.18-32.94-50.53-.65-4.68,3.5-10.36,7.17-15.37.69-.94,1.38-1.87,2-2.77,4.45-6.33,9.95-13.58,17-19.29,2.72-2.21,4.93-3.33,6.62-3.33m0-7h0c-3.41,0-6.91,1.55-11,4.89-7.72,6.25-13.61,14-18.35,20.71l0,0c-.57.82-1.21,1.69-1.87,2.58l0,.05c-4.45,6.08-9.49,13-8.44,20.47.79,5.78,8.52,18.53,14.85,28.21,6.51,9.94,15.29,22.15,20.42,26.64a7,7,0,0,0,9.24,0c5.13-4.49,13.91-16.71,20.42-26.64,6.33-9.68,14-22.43,14.85-28.22,1-7.5-4-14.38-8.41-20.44l-.42-.58c-.53-.73-1.05-1.44-1.53-2.12-4.74-6.73-10.62-14.46-18.34-20.71-4.05-3.3-7.56-4.86-11-4.89h-.29Z" transform="translate(-135.65 -32.83)"/><path class="cls-4" d="M404.6,119.91a2.85,2.85,0,0,1-1.74-.6c-7.25-5.75-20.45-17.85-27.34-34.33-6-14.26-6.71-27.92-2-36.53,1.44-2.66,4.09-6,8.53-6.8a24.7,24.7,0,0,1,4.29-.39c9.53,0,17.42,5.71,20.61,14.91l3.12,9L412.59,56c2.45-8.9,10.3-12.06,16.29-12.06a17.66,17.66,0,0,1,2.06.12c6.39.71,13.38,5.24,13.8,15.77l.26,6.47,4.73-4.45A10.56,10.56,0,0,1,457.08,59a16.6,16.6,0,0,1,10.08,3.84c5.33,4.26,9.61,12.56,5.62,23.07a2.8,2.8,0,0,1-2.63,1.81,2.63,2.63,0,0,1-.91-.15,41.34,41.34,0,0,0-13.43-2.22c-9.21,0-18.73,3-27.52,8.67-9.83,6.35-17.71,15.36-21.07,24.1a2.78,2.78,0,0,1-1.88,1.7A2.64,2.64,0,0,1,404.6,119.91Z" transform="translate(-135.65 -32.83)"/><path class="cls-4" d="M402.86,119.31c-7.25-5.75-20.45-17.85-27.34-34.33-6-14.26-6.71-27.92-2-36.53,1.44-2.66,4.09-6,8.53-6.8a24.7,24.7,0,0,1,4.29-.39c9.53,0,17.42,5.71,20.61,14.91l3.12,9L412.59,56c2.45-8.9,10.3-12.06,16.29-12.06a17.66,17.66,0,0,1,2.06.12c6.39.71,13.38,5.24,13.8,15.77l.26,6.47,4.73-4.45A10.56,10.56,0,0,1,457.08,59a16.6,16.6,0,0,1,10.08,3.84c5.33,4.26,9.61,12.56,5.62,23.07l-1,2.55-2.58-.89a41.34,41.34,0,0,0-13.43-2.22c-9.21,0-18.73,3-27.52,8.67-9.83,6.35-17.71,15.36-21.07,24.1l-1.37,3.57Z" transform="translate(-135.65 -32.83)"/><path class="cls-5" d="M404.6,117.1c3.5-9.1,11.6-18.62,22.17-25.45,14.12-9.11,29.63-11.47,43.38-6.74,3.42-9,.08-16-4.74-19.89-3.9-3.12-9.86-4.8-13.76-1.14l-9.21,8.65-.51-12.61c-.43-11-8.78-12.81-11.32-13.09-5.89-.69-13.18,2.13-15.31,9.9L410.37,74.6l-6.08-17.51a18.7,18.7,0,0,0-18-13,22.34,22.34,0,0,0-3.79.34c-3.32.6-5.41,3.26-6.57,5.39h0c-4.3,7.87-3.5,20.6,2.14,34.1C384.61,99.45,396.88,111,404.6,117.1Z" transform="translate(-135.65 -32.83)"/><path class="cls-1" d="M371.13,215.42h0a9.13,9.13,0,0,0,0-18.26h0a9.13,9.13,0,0,0,0,18.26Z" transform="translate(-135.65 -32.83)"/><path class="cls-1" d="M470.85,197.16a9.12,9.12,0,0,0-9.13,9.12v0a9.13,9.13,0,1,0,9.13-9.15Z" transform="translate(-135.65 -32.83)"/><path class="cls-6" d="M213.08,543.74a2.28,2.28,0,0,1,1-1.08,2.83,2.83,0,0,1,2.71,0,2.46,2.46,0,0,1,1,1.06q1.61,3,2.9,6.06c.87,2,1.81,4.13,2.8,6.23q1.39-4.49,2.44-8.67c.7-2.78,1.42-5.53,2.16-8.22a3.36,3.36,0,0,1,1-1.91,2.89,2.89,0,0,1,1.72-.47,2.29,2.29,0,0,1,1.55.52,1.76,1.76,0,0,1,.61,1.41,15.25,15.25,0,0,1-.36,2.53c-.24,1.2-.55,2.58-.94,4.15s-.81,3.24-1.28,5-.92,3.47-1.38,5.1-.9,3.1-1.3,4.43-.72,2.33-.94,3a5.21,5.21,0,0,1-1.06,1.91,2.46,2.46,0,0,1-1.88.64,2.43,2.43,0,0,1-1.94-.91,11.54,11.54,0,0,1-1.44-2.19q-.23-.45-.72-1.5l-1.19-2.49c-.46-1-1-2-1.5-3.16l-1.63-3.49c-.55,1.18-1.12,2.35-1.69,3.49s-1.1,2.21-1.58,3.19-.89,1.82-1.25,2.52l-.74,1.49a13.16,13.16,0,0,1-1.42,2.19,2.4,2.4,0,0,1-2,.92c-1.3,0-2.27-.85-2.94-2.55-.26-.67-.59-1.65-1-3s-.83-2.77-1.27-4.4-.89-3.31-1.33-5.07-.84-3.41-1.19-5-.64-2.91-.86-4.1a15.93,15.93,0,0,1-.33-2.54,2.23,2.23,0,0,1,.53-1.55,1.88,1.88,0,0,1,1.52-.61,3.09,3.09,0,0,1,1.8.47,3.26,3.26,0,0,1,1.08,1.91c.74,2.69,1.46,5.44,2.16,8.22s1.51,5.68,2.44,8.67q1.22-2.65,2.43-5.54T213.08,543.74Z" transform="translate(-135.65 -32.83)"/><path class="cls-6" d="M267.53,564.9a2.84,2.84,0,0,1-1.41-.3,2,2,0,0,1-.8-.81,3.34,3.34,0,0,1-.39-1.19c-.08-.46-.13-1-.17-1.46a11.43,11.43,0,0,1-3.57,2.88,11.89,11.89,0,0,1-5.57,1.16,15.83,15.83,0,0,1-4.4-.64,10.46,10.46,0,0,1-4.07-2.21,11.81,11.81,0,0,1-3-4.24,16.88,16.88,0,0,1-1.16-6.7,21.79,21.79,0,0,1,.78-5.93,14.22,14.22,0,0,1,2.35-4.85,11.42,11.42,0,0,1,4-3.29,13.22,13.22,0,0,1,10.64-.2,10.82,10.82,0,0,1,4,3.35c0-.44,0-.89.05-1.35a4,4,0,0,1,.31-1.28,2,2,0,0,1,.8-.94,2.73,2.73,0,0,1,1.5-.36,2.26,2.26,0,0,1,1.55.66,4.42,4.42,0,0,1,.83,2.88c.11,2,.19,3.72.25,5.27s.08,3.15.08,4.82c0,2,0,3.89-.06,5.59s-.13,3.51-.27,5.43a13.39,13.39,0,0,1-.31,2,3.07,3.07,0,0,1-.47,1.11,1.25,1.25,0,0,1-.66.47A2.63,2.63,0,0,1,267.53,564.9Zm-3-14.07a11.17,11.17,0,0,0-.86-4.71,7.43,7.43,0,0,0-5-4.26,11,11,0,0,0-2.77-.39,7.39,7.39,0,0,0-3.4.72,6.21,6.21,0,0,0-2.3,2,8.42,8.42,0,0,0-1.3,2.93,15.32,15.32,0,0,0-.42,3.69q0,4.88,2.13,7.2a7.46,7.46,0,0,0,5.79,2.32,8.46,8.46,0,0,0,3.69-.74,7,7,0,0,0,2.49-2,8.77,8.77,0,0,0,1.44-3A14.35,14.35,0,0,0,264.54,550.83Z" transform="translate(-135.65 -32.83)"/><path class="cls-6" d="M295.84,541.08a9.59,9.59,0,0,0-3.69.67,22.11,22.11,0,0,0-3.68,2v3.41c0,1.49,0,3.12-.05,4.87s-.08,3.48-.12,5.18-.11,3.12-.22,4.27a13.47,13.47,0,0,1-.25,1.74,2.54,2.54,0,0,1-.38,1,1.11,1.11,0,0,1-.67.42,7.33,7.33,0,0,1-2.16,0,1.26,1.26,0,0,1-.69-.39,2.15,2.15,0,0,1-.44-.91,9.52,9.52,0,0,1-.28-1.67c-.08-.66-.14-1.55-.2-2.66s-.1-2.31-.13-3.62-.07-2.64-.09-4,0-2.6,0-3.74c0-1.88,0-3.42.08-4.6a27.2,27.2,0,0,1,.3-3.16,6.21,6.21,0,0,1,.89-2.93,1.92,1.92,0,0,1,1.5-.61,2.65,2.65,0,0,1,2.07.77,4.46,4.46,0,0,1,.86,2.55,17.74,17.74,0,0,1,4.41-2.82,11.74,11.74,0,0,1,4.84-1.06,8.69,8.69,0,0,1,4.35,1.11,8.32,8.32,0,0,1,3.24,3.6,12.76,12.76,0,0,1,1.16,3.3,29.25,29.25,0,0,1,.56,3.79c0,.59.07,1.18.11,1.75s.06,1.18.08,1.83,0,1.37,0,2.18v2.89c0,1.18,0,2.29-.06,3.32a14.41,14.41,0,0,1-.3,2.69A3.68,3.68,0,0,1,306,564a2.21,2.21,0,0,1-1.66.63c-1.7,0-2.59-.81-2.66-2.43v-1.41q0-1.26,0-2.91c0-1.11,0-2.24-.05-3.38s-.05-2.09-.09-2.83c0-.59-.08-1.22-.13-1.91s-.13-1.37-.23-2.08-.21-1.37-.36-2a9.62,9.62,0,0,0-.55-1.74,4.07,4.07,0,0,0-1.94-2.33A6.26,6.26,0,0,0,295.84,541.08Z" transform="translate(-135.65 -32.83)"/><path class="cls-6" d="M330.85,572.27a8.81,8.81,0,0,0,4.4-1,7.9,7.9,0,0,0,2.91-2.94,13.77,13.77,0,0,0,1.58-4.6,35.69,35.69,0,0,0,.47-6.06,8.58,8.58,0,0,1-1.44,3,8,8,0,0,1-2.19,2,9,9,0,0,1-2.8,1.08,14.69,14.69,0,0,1-3.21.34,15.88,15.88,0,0,1-4.82-.72,10.44,10.44,0,0,1-4-2.28,10.93,10.93,0,0,1-2.69-4,15.17,15.17,0,0,1-1-5.79,17.87,17.87,0,0,1,1-6,13.33,13.33,0,0,1,2.82-4.73,12.79,12.79,0,0,1,4.52-3.1,15.68,15.68,0,0,1,6.09-1.11,14.3,14.3,0,0,1,3.24.33,11.47,11.47,0,0,1,2.52.89,8.84,8.84,0,0,1,2,1.33,14.57,14.57,0,0,1,1.58,1.66,16.84,16.84,0,0,1,3,6.29,34.89,34.89,0,0,1,.95,8.72,48.67,48.67,0,0,1-.64,7.7,23.53,23.53,0,0,1-2.3,7.12,14.26,14.26,0,0,1-4.6,5.21,13.07,13.07,0,0,1-7.53,2q-.84,0-1.86-.09t-2.1-.24a20,20,0,0,1-2.14-.47,9.56,9.56,0,0,1-1.93-.81,12,12,0,0,1-1.78-1.16,2.27,2.27,0,0,1-.66-1.83,3.84,3.84,0,0,1,.47-1.91,1.71,1.71,0,0,1,1.63-.86,2.76,2.76,0,0,1,1.22.33c.44.22,1,.45,1.64.7a23.21,23.21,0,0,0,2.32.69A14.24,14.24,0,0,0,330.85,572.27Zm.28-13.3a7.75,7.75,0,0,0,3.68-.8A7.16,7.16,0,0,0,337.3,556a9.21,9.21,0,0,0,1.44-3,12,12,0,0,0,.47-3.33,11.24,11.24,0,0,0-.36-2.79,7.51,7.51,0,0,0-1.19-2.58,6.06,6.06,0,0,0-2.27-1.88,9.11,9.11,0,0,0-9.5,1.49c-1.5,1.48-2.24,3.66-2.24,6.54a9,9,0,0,0,2,6.26A7,7,0,0,0,331.13,559Z" transform="translate(-135.65 -32.83)"/><path class="cls-6" d="M366.86,535.76a28,28,0,0,1,2.93.2,16.76,16.76,0,0,1,3.38.72,8.51,8.51,0,0,1,2.77,1.47,2.91,2.91,0,0,1,1.16,2.38,2.26,2.26,0,0,1-.47,1.44,1.71,1.71,0,0,1-1.46.61,7.5,7.5,0,0,1-1.64-.22c-.61-.15-1.27-.33-2-.53s-1.5-.38-2.33-.53a15.81,15.81,0,0,0-2.63-.22,8.67,8.67,0,0,0-3.8.72,2.39,2.39,0,0,0-1.46,2.27,2.23,2.23,0,0,0,.52,1.5,4.6,4.6,0,0,0,1.44,1.08,11,11,0,0,0,2.16.8c.83.22,1.71.45,2.63.67,1.15.29,2.28.63,3.41,1a10.73,10.73,0,0,1,3,1.53,7.46,7.46,0,0,1,2.16,2.44,7.16,7.16,0,0,1,.83,3.62,7.79,7.79,0,0,1-3.1,6.51q-3.11,2.41-9.14,2.41a30.21,30.21,0,0,1-3.16-.19,16.67,16.67,0,0,1-3.43-.72,7.87,7.87,0,0,1-2.74-1.5,3.19,3.19,0,0,1-1.14-2.57,2.38,2.38,0,0,1,.53-1.69,1.67,1.67,0,0,1,1.3-.58,2.6,2.6,0,0,1,1.27.38,18,18,0,0,0,1.61.83,15.23,15.23,0,0,0,2.27.84,12.18,12.18,0,0,0,3.27.38c.48,0,1.11,0,1.88-.08a9.22,9.22,0,0,0,2.3-.47,5.88,5.88,0,0,0,1.94-1.08,2.48,2.48,0,0,0,.8-2,2.62,2.62,0,0,0-.55-1.69,4.68,4.68,0,0,0-1.5-1.19,11.49,11.49,0,0,0-2.19-.86l-2.63-.75q-1.6-.44-3.24-1a12.71,12.71,0,0,1-3-1.44,7,7,0,0,1-2.16-2.25,6.24,6.24,0,0,1-.83-3.35,8.15,8.15,0,0,1,.77-3.51,8.51,8.51,0,0,1,2.22-2.86,10.19,10.19,0,0,1,3.46-1.88A14.5,14.5,0,0,1,366.86,535.76Z" transform="translate(-135.65 -32.83)"/><path class="cls-6" d="M413.83,541.14a32.25,32.25,0,0,1-2.63-4.57,12.22,12.22,0,0,1-1.14-5.29,8.83,8.83,0,0,1,.72-3.69,7.56,7.56,0,0,1,2-2.66,8.62,8.62,0,0,1,3-1.63,12.26,12.26,0,0,1,3.74-.55,9.41,9.41,0,0,1,4.18.8,6.59,6.59,0,0,1,2.55,2.1,8.1,8.1,0,0,1,1.27,2.91,14.45,14.45,0,0,1,.36,3.16,10.15,10.15,0,0,1-.5,3.38,9.12,9.12,0,0,1-1.38,2.6,12.72,12.72,0,0,1-2.19,2.22q-1.31,1.05-2.85,2.16l7.81,13,2.77-3.27c.22-.3.47-.62.75-1a11.87,11.87,0,0,1,.88-1,5.75,5.75,0,0,1,1-.8,2.2,2.2,0,0,1,1.19-.33,2.3,2.3,0,0,1,1.52.58,2,2,0,0,1,.7,1.58,2.9,2.9,0,0,1-.72,1.91c-.48.57-.95,1.13-1.39,1.69l-1.69,2q-1.19,1.41-2.46,2.85l2.49,3.94a6.87,6.87,0,0,1,.64,1.27,3.74,3.74,0,0,1,.24,1.27,2.19,2.19,0,0,1-.74,1.69,2.23,2.23,0,0,1-1.53.7,2.16,2.16,0,0,1-1.27-.5,8.2,8.2,0,0,1-1.61-1.89L427.62,563a22.93,22.93,0,0,1-5.23,3.46,13.29,13.29,0,0,1-5.62,1.19,15,15,0,0,1-4.18-.61,10.52,10.52,0,0,1-3.86-2,10.92,10.92,0,0,1-2.82-3.66,12.46,12.46,0,0,1-1.11-5.56,14.84,14.84,0,0,1,.75-4.88,15.25,15.25,0,0,1,2-3.9,18.51,18.51,0,0,1,2.88-3.19Q412.05,542.41,413.83,541.14Zm3.1,21.38a8.89,8.89,0,0,0,4.3-1A23,23,0,0,0,425,559c-1.44-2.21-2.89-4.46-4.32-6.75s-2.85-4.55-4.21-6.76a29.1,29.1,0,0,0-4.66,4.71,9.07,9.07,0,0,0-1.88,5.7,7.24,7.24,0,0,0,.58,3.08,5.67,5.67,0,0,0,1.58,2,6.35,6.35,0,0,0,2.27,1.16A9.54,9.54,0,0,0,416.93,562.52Zm-1.33-30.91a6.05,6.05,0,0,0,.7,2.69,42.08,42.08,0,0,0,2.18,3.74,12.32,12.32,0,0,0,2.86-2.94,6.61,6.61,0,0,0,1.24-3.88,3.86,3.86,0,0,0-1-2.88,3.3,3.3,0,0,0-2.36-1,3.11,3.11,0,0,0-2.63,1.33A4.93,4.93,0,0,0,415.6,531.61Z" transform="translate(-135.65 -32.83)"/><path class="cls-6" d="M473.21,543.74a2.38,2.38,0,0,1,1-1.08,2.86,2.86,0,0,1,1.42-.36,2.82,2.82,0,0,1,1.3.33,2.49,2.49,0,0,1,1,1.06q1.6,3,2.91,6.06t2.8,6.23q1.38-4.49,2.44-8.67c.7-2.78,1.42-5.53,2.16-8.22a3.31,3.31,0,0,1,1-1.91,2.85,2.85,0,0,1,1.72-.47,2.31,2.31,0,0,1,1.55.52,1.79,1.79,0,0,1,.61,1.41,15.25,15.25,0,0,1-.36,2.53c-.24,1.2-.56,2.58-.94,4.15s-.82,3.24-1.28,5-.92,3.47-1.38,5.1-.9,3.1-1.31,4.43-.72,2.33-.94,3a5.07,5.07,0,0,1-1.05,1.91,2.47,2.47,0,0,1-1.88.64,2.42,2.42,0,0,1-1.94-.91,11.54,11.54,0,0,1-1.44-2.19q-.22-.45-.72-1.5c-.34-.7-.73-1.53-1.19-2.49s-1-2-1.5-3.16l-1.63-3.49c-.56,1.18-1.12,2.35-1.69,3.49s-1.1,2.21-1.58,3.19-.9,1.82-1.25,2.52l-.75,1.49a12.54,12.54,0,0,1-1.41,2.19,2.41,2.41,0,0,1-2,.92q-1.95,0-2.94-2.55c-.26-.67-.59-1.65-1-3s-.83-2.77-1.27-4.4-.89-3.31-1.33-5.07-.84-3.41-1.19-5-.64-2.91-.86-4.1a15.93,15.93,0,0,1-.33-2.54,2.27,2.27,0,0,1,.52-1.55,1.9,1.9,0,0,1,1.53-.61,3.13,3.13,0,0,1,1.8.47,3.26,3.26,0,0,1,1.08,1.91c.73,2.69,1.45,5.44,2.16,8.22s1.51,5.68,2.43,8.67q1.23-2.65,2.44-5.54T473.21,543.74Z" transform="translate(-135.65 -32.83)"/><path class="cls-6" d="M527.67,564.9a2.84,2.84,0,0,1-1.41-.3,2,2,0,0,1-.81-.81,3.54,3.54,0,0,1-.38-1.19c-.08-.46-.13-1-.17-1.46a11.55,11.55,0,0,1-3.57,2.88,11.89,11.89,0,0,1-5.57,1.16,16,16,0,0,1-4.41-.64,10.6,10.6,0,0,1-4.07-2.21,11.79,11.79,0,0,1-3-4.24,16.88,16.88,0,0,1-1.16-6.7,22.19,22.19,0,0,1,.77-5.93,14.42,14.42,0,0,1,2.36-4.85,11.42,11.42,0,0,1,4-3.29,13.22,13.22,0,0,1,10.64-.2,10.72,10.72,0,0,1,4,3.35q0-.66.06-1.35a4.29,4.29,0,0,1,.3-1.28,2.1,2.1,0,0,1,.81-.94,2.69,2.69,0,0,1,1.49-.36,2.25,2.25,0,0,1,1.55.66,4.36,4.36,0,0,1,.83,2.88c.12,2,.2,3.72.25,5.27s.09,3.15.09,4.82c0,2,0,3.89-.06,5.59s-.13,3.51-.28,5.43a12.38,12.38,0,0,1-.3,2,3.25,3.25,0,0,1-.47,1.11,1.28,1.28,0,0,1-.67.47A2.52,2.52,0,0,1,527.67,564.9Zm-3-14.07a11.17,11.17,0,0,0-.86-4.71,7.43,7.43,0,0,0-5-4.26,11,11,0,0,0-2.77-.39,7.46,7.46,0,0,0-3.41.72,6.37,6.37,0,0,0-2.3,2,8.61,8.61,0,0,0-1.3,2.93,15.86,15.86,0,0,0-.41,3.69q0,4.88,2.13,7.2a7.46,7.46,0,0,0,5.79,2.32,8.38,8.38,0,0,0,3.68-.74,6.94,6.94,0,0,0,2.5-2,8.77,8.77,0,0,0,1.44-3A14.35,14.35,0,0,0,524.68,550.83Z" transform="translate(-135.65 -32.83)"/><path class="cls-6" d="M544.29,542.19c-.41,0-.81.06-1.19.08l-1.14,0a5.15,5.15,0,0,1-2.74-.58,2.46,2.46,0,0,1-.92-2.24,2.89,2.89,0,0,1,.7-2,3.78,3.78,0,0,1,2.74-.74,21,21,0,0,1,2.6.16v-3.21a17.41,17.41,0,0,1,.5-4.21,10.72,10.72,0,0,1,1.55-3.52,7.87,7.87,0,0,1,2.74-2.44,8.6,8.6,0,0,1,4.13-.91,5.49,5.49,0,0,1,3.1.64,2.37,2.37,0,0,1,.89,2.07,1.63,1.63,0,0,1-1.16,1.78,9.83,9.83,0,0,1-2.66.33,3,3,0,0,0-2.75,1.61,7.93,7.93,0,0,0-.91,3.93v3.88a7.85,7.85,0,0,1,1.41-.2q.69,0,1.47,0a4.86,4.86,0,0,1,2.91.67,2.49,2.49,0,0,1,.86,2.1,2.31,2.31,0,0,1-1.17,2.36,7.58,7.58,0,0,1-3.1.53H551a6.46,6.46,0,0,1-1.25-.12v19.06a7.23,7.23,0,0,1-.22,2,2.66,2.66,0,0,1-.61,1.11,1.62,1.62,0,0,1-.89.47,5.89,5.89,0,0,1-1,.08,3.5,3.5,0,0,1-1-.14,1.64,1.64,0,0,1-.85-.55,3.39,3.39,0,0,1-.61-1.14,5.51,5.51,0,0,1-.25-1.82Z" transform="translate(-135.65 -32.83)"/><path class="cls-6" d="M566.89,542.19c-.41,0-.81.06-1.19.08l-1.14,0a5.15,5.15,0,0,1-2.74-.58,2.46,2.46,0,0,1-.91-2.24,2.89,2.89,0,0,1,.69-2,3.78,3.78,0,0,1,2.74-.74,21,21,0,0,1,2.6.16v-3.21a17.41,17.41,0,0,1,.5-4.21,10.72,10.72,0,0,1,1.55-3.52,7.82,7.82,0,0,1,2.75-2.44,8.53,8.53,0,0,1,4.12-.91,5.49,5.49,0,0,1,3.1.64,2.37,2.37,0,0,1,.89,2.07,1.63,1.63,0,0,1-1.16,1.78,9.78,9.78,0,0,1-2.66.33,3,3,0,0,0-2.74,1.61,7.82,7.82,0,0,0-.92,3.93v3.88a7.83,7.83,0,0,1,1.42-.2c.46,0,1,0,1.46,0a4.86,4.86,0,0,1,2.91.67,2.49,2.49,0,0,1,.86,2.1,2.32,2.32,0,0,1-1.16,2.36,7.67,7.67,0,0,1-3.11.53h-1.13a6.46,6.46,0,0,1-1.25-.12v19.06a7.23,7.23,0,0,1-.22,2,2.66,2.66,0,0,1-.61,1.11,1.62,1.62,0,0,1-.88.47,6.08,6.08,0,0,1-1.06.08,3.38,3.38,0,0,1-1-.14,1.66,1.66,0,0,1-.86-.55,3.39,3.39,0,0,1-.61-1.14,5.51,5.51,0,0,1-.25-1.82Zm16.45,19.28c0-1.33-.07-2.88-.11-4.66s-.06-3.69-.08-5.76,0-4.24-.06-6.53,0-4.64,0-7q0-3.93.06-6.76a44.15,44.15,0,0,1,.3-4.65,6.92,6.92,0,0,1,.81-2.69,1.75,1.75,0,0,1,1.55-.86,2.52,2.52,0,0,1,1.66.61c.48.41.76,1.35.83,2.83q.22,4,.28,8.28t.05,8.45v4.79c0,1.53,0,3-.05,4.54s-.08,3-.11,4.57-.1,3.16-.17,4.82a10,10,0,0,1-.25,2.05,2.87,2.87,0,0,1-.52,1.11,1.34,1.34,0,0,1-.75.47,4.69,4.69,0,0,1-1,.08,2.2,2.2,0,0,1-1.66-.69A4.87,4.87,0,0,1,583.34,561.47Z" transform="translate(-135.65 -32.83)"/><path class="cls-6" d="M614.47,554.49a27.85,27.85,0,0,1-4.07-.31,19.83,19.83,0,0,1-4.62-1.3,7.41,7.41,0,0,0,2.79,5.1,11,11,0,0,0,6.62,1.72,18.14,18.14,0,0,0,2.8-.2c.83-.13,1.56-.28,2.19-.44l1.66-.44a5.11,5.11,0,0,1,1.33-.2,2.76,2.76,0,0,1,1.5.47,1.77,1.77,0,0,1,.72,1.58,2.75,2.75,0,0,1-1.14,2.27,8.91,8.91,0,0,1-2.77,1.41,16.59,16.59,0,0,1-3.46.73c-1.22.12-2.29.19-3.22.19a19.48,19.48,0,0,1-6-.89,12.9,12.9,0,0,1-4.73-2.68A12.17,12.17,0,0,1,601,557a17.82,17.82,0,0,1,0-12.3,13.07,13.07,0,0,1,3-4.49,12.49,12.49,0,0,1,4.46-2.77,16,16,0,0,1,5.57-.94,16.58,16.58,0,0,1,4.51.61,12.29,12.29,0,0,1,3.88,1.83,9.24,9.24,0,0,1,2.72,3.07,8.91,8.91,0,0,1,1,4.35,8,8,0,0,1-.83,3.77,6.53,6.53,0,0,1-2.35,2.49,11.16,11.16,0,0,1-3.66,1.38A23,23,0,0,1,614.47,554.49Zm-.39-12.85a11.48,11.48,0,0,0-2.88.36,7.62,7.62,0,0,0-2.52,1.16,7,7,0,0,0-1.91,2.1,8.59,8.59,0,0,0-1,3.24,17.68,17.68,0,0,0,4.1,1.31,23.66,23.66,0,0,0,4.21.36,11.11,11.11,0,0,0,4.85-.81,3,3,0,0,0,1.58-2.9,4.57,4.57,0,0,0-1.47-3.38Q617.52,541.64,614.08,541.64Z" transform="translate(-135.65 -32.83)"/><path class="cls-6" d="M647.32,535.76a27.94,27.94,0,0,1,2.94.2,16.76,16.76,0,0,1,3.38.72,8.62,8.62,0,0,1,2.77,1.47,2.94,2.94,0,0,1,1.16,2.38,2.32,2.32,0,0,1-.47,1.44,1.72,1.72,0,0,1-1.47.61,7.42,7.42,0,0,1-1.63-.22c-.61-.15-1.28-.33-2-.53s-1.49-.38-2.32-.53a15.84,15.84,0,0,0-2.64-.22,8.62,8.62,0,0,0-3.79.72,2.38,2.38,0,0,0-1.47,2.27,2.24,2.24,0,0,0,.53,1.5,4.6,4.6,0,0,0,1.44,1.08,11,11,0,0,0,2.16.8c.83.22,1.71.45,2.63.67,1.15.29,2.28.63,3.41,1a10.86,10.86,0,0,1,3,1.53,7.7,7.7,0,0,1,2.16,2.44,7.26,7.26,0,0,1,.83,3.62,7.81,7.81,0,0,1-3.1,6.51q-3.11,2.41-9.14,2.41a30.21,30.21,0,0,1-3.16-.19,16.77,16.77,0,0,1-3.44-.72,8,8,0,0,1-2.74-1.5,3.19,3.19,0,0,1-1.13-2.57,2.43,2.43,0,0,1,.52-1.69,1.68,1.68,0,0,1,1.3-.58,2.61,2.61,0,0,1,1.28.38c.44.26,1,.54,1.6.83a15.39,15.39,0,0,0,2.28.84,12.1,12.1,0,0,0,3.26.38c.48,0,1.11,0,1.89-.08a9.32,9.32,0,0,0,2.3-.47,6,6,0,0,0,1.94-1.08,2.48,2.48,0,0,0,.8-2,2.63,2.63,0,0,0-.56-1.69,4.53,4.53,0,0,0-1.49-1.19,11.76,11.76,0,0,0-2.19-.86l-2.63-.75q-1.6-.44-3.24-1a12.78,12.78,0,0,1-3-1.44,7.25,7.25,0,0,1-2.16-2.25,6.33,6.33,0,0,1-.83-3.35,8,8,0,0,1,.78-3.51,8.48,8.48,0,0,1,2.21-2.86,10.24,10.24,0,0,1,3.47-1.88A14.48,14.48,0,0,1,647.32,535.76Z" transform="translate(-135.65 -32.83)"/><path class="cls-7" d="M185.1,487.19c.38,10.27-1.9,12.94-12,14.2l-2.41.26c-9.89,1.27-12.43-1.14-12.18-11.16l1.53-56.3-11.67.76c-10.14.76-12.81-1.65-12.68-11.79l.13-8.5c.12-10.14,2.53-12.55,12.68-11.92l51.48,3.05c9.64.63,11.92,3,11.54,12.93-.26,9.64-2.54,12-12.18,12.68l-16.23,1.14Z" transform="translate(-135.65 -32.83)"/><path class="cls-7" d="M291.49,486.05c.38,10.14-2,12.3-14.46,12.3-10.27,0-12.68-2.66-12.81-12.93L264,464.75l-15.72,1.52-.51,21.94c-.25,10.14-2.92,12.42-13.31,11.66s-12.81-3.42-12.94-13.69l-1-65.81c-.13-10.27,2.15-12.56,12.42-13.32l3.3-.25c10.14-.76,12.68,1.9,12.43,12.05l-.64,26.5,15.85-.38-.25-25.49c-.13-10,2.28-12.68,12.3-13.44s12.81,1.39,13.19,11.29Z" transform="translate(-135.65 -32.83)"/><path class="cls-7" d="M385.19,486.18c3.3,9.25,1.27,12-8.5,12.42l-4.18.26c-12.81.76-13.32-1.78-15.85-11.79l-2.79-10.91-24.47.89-1.4,7.73c-1.77,10.15-2.28,12.18-15.09,13.06l-3.67.26c-9.77.5-11.92-2.16-9.39-11.67l19.4-71.13c2.67-10,5.58-12.68,23.33-13.95,10.4-.76,13.44,1.14,16.87,10.9Zm-35.76-26.76-9.38-29.92-7.23,29.92Z" transform="translate(-135.65 -32.83)"/><path class="cls-7" d="M471.29,492c-.51,5.83-1.91,7.35-7.87,8.62s-7.86.26-11-4.69l-30.68-47.68,1.77,38.55c.38,10-2.16,12.43-12,11.41l-2-.25c-10.15-1-12.68-3.68-12.94-14L395,423.54c-.25-10.27,1.78-13.44,12.05-15.09l4.69-.76c10.27-1.65,13.44-.38,18.26,8.87l19.27,36.52-1.39-35.63c-.38-10.14,2-13.06,12.17-13.44l6.47-.25c10-.38,12.42,1.9,11.54,11.92Z" transform="translate(-135.65 -32.83)"/><path class="cls-7" d="M552.94,465.76l-7-.12c-7.36-.13-9.13-1.91-9.38-9.51-.13-7.36,1.64-9.13,9-9.51L580.71,445c2-.13,2.67.38,2.79,2.41v2.91c0,36.78-24.47,52.63-46.91,52.63-24.86,0-50.47-19.41-50.47-51.74,0-31.32,24.6-50,53.26-50a71.21,71.21,0,0,1,20.28,3c9.26,2.79,10.91,6.6,6.6,15.22L565.5,421c-4.44,8.88-6.6,9.89-16.23,7.1a43,43,0,0,0-11.8-1.77c-11.79,0-21.93,6.21-21.93,24.85,0,16.1,12.17,27.52,22.44,27.52C544.7,478.7,550.66,474.89,552.94,465.76Z" transform="translate(-135.65 -32.83)"/><path class="cls-7" d="M606.45,426.46c-2.66,5.7-4.69,7.22-10.9,8.11s-7.49-.63-6.09-6.34l3.93-17.12c1.9-8.37,4.44-10.14,13.31-9,8.25,1,9.64,3.55,6.09,11Z" transform="translate(-135.65 -32.83)"/><path class="cls-7" d="M627,491.88c-7-4.31-7.86-8.49-2.92-15l.39-.63c5.95-7.86,8-8.5,17.37-4.57a43.58,43.58,0,0,0,16.86,3.68c9.77,0,16.74-4.19,16.74-11.16,0-16-52.37-3.68-52.37-34.36,0-23.59,22.82-29.67,44.38-29.67,4.06,0,8.12.25,11.92.63,9,.89,11.28,3.55,11,12.55-.25,7.36-1.39,9.64-6.21,9.64-1.65,0-9.51-1.65-16.74-1.65-7.61,0-14.07,1.9-14.07,7.48,0,12.94,54.27-5.45,54.27,37.16,0,24.09-22.83,34.74-46.16,34.74C648.93,500.76,636.25,497.59,627,491.88Z" transform="translate(-135.65 -32.83)"/></svg>