<svg id="Horizontal" xmlns="http://www.w3.org/2000/svg" viewBox="0 0 760.63 250"><defs><style>.cls-1{fill:#df3128;}.cls-2{fill:#010202;}.cls-3{fill:#fff;}.cls-4{fill:#e03228;}.cls-5{fill:#f9a31a;}.cls-6{fill:#df2e27;}</style></defs><title>ThangsWangsLogoHorizontal</title><path d="M281.79,359.74a2.31,2.31,0,0,1,1-1.08,2.86,2.86,0,0,1,1.42-.36,2.82,2.82,0,0,1,1.3.33,2.49,2.49,0,0,1,1,1.06q1.61,3,2.91,6.06t2.8,6.23c.92-3,1.74-5.88,2.44-8.67s1.42-5.53,2.16-8.22a3.36,3.36,0,0,1,1.05-1.91,2.87,2.87,0,0,1,1.72-.47,2.31,2.31,0,0,1,1.55.52,1.79,1.79,0,0,1,.61,1.41,15.25,15.25,0,0,1-.36,2.53c-.24,1.2-.56,2.58-.94,4.15s-.82,3.24-1.28,5-.92,3.47-1.38,5.1-.9,3.1-1.3,4.43-.72,2.33-1,3a5.07,5.07,0,0,1-1,1.91,2.47,2.47,0,0,1-1.88.64,2.43,2.43,0,0,1-1.94-.91,11.54,11.54,0,0,1-1.44-2.19q-.22-.45-.72-1.5l-1.19-2.49c-.47-1-1-2-1.5-3.16l-1.63-3.49c-.56,1.18-1.12,2.35-1.69,3.49s-1.1,2.21-1.58,3.19-.9,1.82-1.25,2.52l-.75,1.49a12.54,12.54,0,0,1-1.41,2.19,2.41,2.41,0,0,1-2,.92q-1.95,0-2.94-2.55c-.26-.67-.59-1.65-1-3s-.83-2.77-1.27-4.4-.89-3.31-1.33-5.07-.84-3.41-1.19-5-.64-2.91-.86-4.1a15.93,15.93,0,0,1-.33-2.54,2.27,2.27,0,0,1,.52-1.55,1.9,1.9,0,0,1,1.53-.61,3.13,3.13,0,0,1,1.8.47,3.26,3.26,0,0,1,1.08,1.91c.74,2.69,1.46,5.44,2.16,8.22s1.51,5.68,2.43,8.67q1.23-2.66,2.44-5.54C279.38,364.52,280.46,362.29,281.79,359.74Z" transform="translate(-41 -173)"/><path d="M338,380.9a2.88,2.88,0,0,1-1.42-.3,2,2,0,0,1-.8-.81,3.78,3.78,0,0,1-.39-1.19c-.07-.46-.13-1-.16-1.46a11.59,11.59,0,0,1-3.58,2.88,11.85,11.85,0,0,1-5.56,1.16,16,16,0,0,1-4.41-.64,10.6,10.6,0,0,1-4.07-2.21,11.67,11.67,0,0,1-3-4.24,16.71,16.71,0,0,1-1.16-6.7,21.8,21.8,0,0,1,.77-5.93,14.24,14.24,0,0,1,2.36-4.85,11.42,11.42,0,0,1,4-3.29,13.2,13.2,0,0,1,10.63-.2,10.67,10.67,0,0,1,4,3.35q0-.66.06-1.35a4,4,0,0,1,.3-1.28,2.08,2.08,0,0,1,.8-.94,2.73,2.73,0,0,1,1.5-.36,2.26,2.26,0,0,1,1.55.66,4.36,4.36,0,0,1,.83,2.88c.11,2,.2,3.72.25,5.27s.08,3.15.08,4.82c0,2,0,3.89-.05,5.59s-.13,3.51-.28,5.43a12.38,12.38,0,0,1-.3,2,3.25,3.25,0,0,1-.47,1.11,1.28,1.28,0,0,1-.67.47A2.61,2.61,0,0,1,338,380.9Zm-3-14.07a11.18,11.18,0,0,0-.85-4.71,7.84,7.84,0,0,0-2.16-2.85,7.63,7.63,0,0,0-2.8-1.41,11,11,0,0,0-2.77-.39,7.44,7.44,0,0,0-3.41.72,6.29,6.29,0,0,0-2.3,2,8.61,8.61,0,0,0-1.3,2.93,15.34,15.34,0,0,0-.41,3.69q0,4.88,2.13,7.2a7.46,7.46,0,0,0,5.79,2.32,8.41,8.41,0,0,0,3.68-.74,6.82,6.82,0,0,0,2.49-2,8.42,8.42,0,0,0,1.44-3A13.93,13.93,0,0,0,335,366.83Z" transform="translate(-41 -173)"/><path d="M368,357.08a9.54,9.54,0,0,0-3.68.67,22.16,22.16,0,0,0-3.69,2v3.41c0,1.49,0,3.12-.05,4.87s-.08,3.48-.11,5.18-.11,3.12-.22,4.27c-.08.74-.16,1.32-.25,1.74a2.7,2.7,0,0,1-.39,1,1.11,1.11,0,0,1-.67.42,6.11,6.11,0,0,1-1.08.08,6.28,6.28,0,0,1-1.08-.08,1.29,1.29,0,0,1-.69-.39,2.27,2.27,0,0,1-.44-.91,10.57,10.57,0,0,1-.28-1.67c-.07-.66-.14-1.55-.19-2.66s-.11-2.31-.14-3.62-.07-2.64-.08-4,0-2.6,0-3.74c0-1.88,0-3.42.08-4.6s.16-2.23.3-3.16a6.33,6.33,0,0,1,.89-2.93,1.92,1.92,0,0,1,1.5-.61,2.65,2.65,0,0,1,2.07.77,4.39,4.39,0,0,1,.86,2.55,17.93,17.93,0,0,1,4.41-2.82,11.77,11.77,0,0,1,4.84-1.06,8.69,8.69,0,0,1,4.35,1.11,8.32,8.32,0,0,1,3.24,3.6,13.15,13.15,0,0,1,1.17,3.3,31.11,31.11,0,0,1,.55,3.79c0,.59.07,1.18.11,1.75s.07,1.18.08,1.83,0,1.37,0,2.18v2.89c0,1.18,0,2.29-.05,3.32a15.23,15.23,0,0,1-.31,2.69,3.59,3.59,0,0,1-.86,1.77,2.19,2.19,0,0,1-1.66.63,2.32,2.32,0,0,1-2.66-2.43v-1.41c0-.84,0-1.81,0-2.91s0-2.24-.06-3.38,0-2.09-.08-2.83-.09-1.22-.14-1.91-.13-1.37-.22-2.08-.22-1.37-.36-2a10.46,10.46,0,0,0-.56-1.74,4,4,0,0,0-1.94-2.33A6.26,6.26,0,0,0,368,357.08Z" transform="translate(-41 -173)"/><path d="M404.71,388.27a8.81,8.81,0,0,0,4.4-1,7.9,7.9,0,0,0,2.91-2.94,14,14,0,0,0,1.58-4.6,35.69,35.69,0,0,0,.47-6.06,8.58,8.58,0,0,1-1.44,3,8,8,0,0,1-2.19,2,9,9,0,0,1-2.8,1.08,14.69,14.69,0,0,1-3.21.34,15.83,15.83,0,0,1-4.82-.72,10.44,10.44,0,0,1-4-2.28,10.93,10.93,0,0,1-2.69-4,15.17,15.17,0,0,1-1-5.79,17.87,17.87,0,0,1,1-6,13.33,13.33,0,0,1,2.82-4.73,12.79,12.79,0,0,1,4.52-3.1,15.68,15.68,0,0,1,6.09-1.11,14.3,14.3,0,0,1,3.24.33,11.47,11.47,0,0,1,2.52.89,8.84,8.84,0,0,1,2,1.33,14.57,14.57,0,0,1,1.58,1.66,16.84,16.84,0,0,1,3,6.29,34.93,34.93,0,0,1,.94,8.72,48.64,48.64,0,0,1-.63,7.7,23.53,23.53,0,0,1-2.3,7.12,14.26,14.26,0,0,1-4.6,5.21,13.07,13.07,0,0,1-7.53,2q-.84,0-1.86-.09t-2.1-.24a19.43,19.43,0,0,1-2.14-.47,9.65,9.65,0,0,1-1.94-.81,11.81,11.81,0,0,1-1.77-1.16,2.27,2.27,0,0,1-.66-1.83,3.84,3.84,0,0,1,.47-1.91,1.71,1.71,0,0,1,1.63-.86,2.76,2.76,0,0,1,1.22.33c.44.22,1,.45,1.63.7s1.43.47,2.33.69A14.18,14.18,0,0,0,404.71,388.27ZM405,375a7.79,7.79,0,0,0,3.69-.8,7.25,7.25,0,0,0,2.49-2.13,9.21,9.21,0,0,0,1.44-3,12,12,0,0,0,.47-3.33,11.24,11.24,0,0,0-.36-2.79,7.51,7.51,0,0,0-1.19-2.58,6.06,6.06,0,0,0-2.27-1.88,9.11,9.11,0,0,0-9.5,1.49c-1.5,1.48-2.24,3.66-2.24,6.54a9,9,0,0,0,2,6.26A7,7,0,0,0,405,375Z" transform="translate(-41 -173)"/><path d="M442.43,351.76a27.94,27.94,0,0,1,2.94.2,16.76,16.76,0,0,1,3.38.72,8.62,8.62,0,0,1,2.77,1.47,2.94,2.94,0,0,1,1.16,2.38,2.32,2.32,0,0,1-.47,1.44,1.72,1.72,0,0,1-1.47.61,7.42,7.42,0,0,1-1.63-.22c-.61-.15-1.28-.33-2-.53s-1.49-.38-2.32-.53a15.81,15.81,0,0,0-2.63-.22,8.64,8.64,0,0,0-3.8.72,2.38,2.38,0,0,0-1.47,2.27,2.24,2.24,0,0,0,.53,1.5,4.6,4.6,0,0,0,1.44,1.08,11,11,0,0,0,2.16.8c.83.22,1.71.45,2.63.67,1.15.29,2.28.63,3.41,1a10.86,10.86,0,0,1,3,1.53,7.7,7.7,0,0,1,2.16,2.44,7.26,7.26,0,0,1,.83,3.62,7.81,7.81,0,0,1-3.1,6.51q-3.11,2.42-9.14,2.41a30.21,30.21,0,0,1-3.16-.19,16.77,16.77,0,0,1-3.44-.72,8,8,0,0,1-2.74-1.5,3.19,3.19,0,0,1-1.13-2.57,2.43,2.43,0,0,1,.52-1.69,1.68,1.68,0,0,1,1.3-.58,2.61,2.61,0,0,1,1.28.38c.44.26,1,.54,1.6.83a15.39,15.39,0,0,0,2.28.84,12.1,12.1,0,0,0,3.26.38c.48,0,1.11,0,1.89-.08a9.32,9.32,0,0,0,2.3-.47,6,6,0,0,0,1.94-1.08,2.48,2.48,0,0,0,.8-2,2.63,2.63,0,0,0-.56-1.69,4.53,4.53,0,0,0-1.49-1.19,11.76,11.76,0,0,0-2.19-.86l-2.63-.75q-1.61-.43-3.24-1a12.52,12.52,0,0,1-3-1.44,7.17,7.17,0,0,1-2.17-2.25,6.33,6.33,0,0,1-.83-3.35,8,8,0,0,1,.78-3.51,8.51,8.51,0,0,1,2.22-2.86,10.19,10.19,0,0,1,3.46-1.88A14.48,14.48,0,0,1,442.43,351.76Z" transform="translate(-41 -173)"/><path d="M492.84,357.14a33.25,33.25,0,0,1-2.63-4.57,12.22,12.22,0,0,1-1.13-5.29,8.83,8.83,0,0,1,.72-3.69,7.54,7.54,0,0,1,2-2.66,8.7,8.7,0,0,1,3-1.63,12.26,12.26,0,0,1,3.74-.55,9.41,9.41,0,0,1,4.18.8,6.59,6.59,0,0,1,2.55,2.1,8.1,8.1,0,0,1,1.27,2.91,14.45,14.45,0,0,1,.36,3.16,10.43,10.43,0,0,1-.49,3.38,9.4,9.4,0,0,1-1.39,2.6,12.72,12.72,0,0,1-2.19,2.22q-1.3,1.05-2.85,2.16l7.81,13,2.77-3.27c.22-.3.47-.62.75-1a11.87,11.87,0,0,1,.88-1,6.16,6.16,0,0,1,1-.8,2.2,2.2,0,0,1,1.19-.33,2.32,2.32,0,0,1,1.53.58,2,2,0,0,1,.69,1.58,2.9,2.9,0,0,1-.72,1.91c-.48.57-.94,1.13-1.39,1.69-.33.4-.89,1.08-1.69,2s-1.61,1.89-2.46,2.85l2.49,3.94a6.87,6.87,0,0,1,.64,1.27,3.76,3.76,0,0,1,.25,1.27,2.2,2.2,0,0,1-.75,1.69,2.23,2.23,0,0,1-1.52.7,2.17,2.17,0,0,1-1.28-.5,8,8,0,0,1-1.6-1.89L506.64,379a23.19,23.19,0,0,1-5.24,3.46,13.29,13.29,0,0,1-5.62,1.19,15,15,0,0,1-4.18-.61,10.4,10.4,0,0,1-3.85-2,10.81,10.81,0,0,1-2.83-3.66,12.46,12.46,0,0,1-1.11-5.56,14.56,14.56,0,0,1,2.75-8.78,18.51,18.51,0,0,1,2.88-3.19A42.5,42.5,0,0,1,492.84,357.14Zm3.1,21.38a8.89,8.89,0,0,0,4.3-1A23,23,0,0,0,504,375q-2.16-3.32-4.32-6.75c-1.44-2.29-2.85-4.55-4.21-6.76a29.1,29.1,0,0,0-4.66,4.71,9.07,9.07,0,0,0-1.88,5.7,7.24,7.24,0,0,0,.58,3.08,5.78,5.78,0,0,0,1.58,2.05,6.35,6.35,0,0,0,2.27,1.16A9.54,9.54,0,0,0,495.94,378.52Zm-1.32-30.91a6.17,6.17,0,0,0,.69,2.69A40.23,40.23,0,0,0,497.5,354a12.48,12.48,0,0,0,2.85-2.94,6.62,6.62,0,0,0,1.25-3.88,3.87,3.87,0,0,0-1-2.88,3.3,3.3,0,0,0-2.35-1,3.12,3.12,0,0,0-2.64,1.33A4.92,4.92,0,0,0,494.62,347.61Z" transform="translate(-41 -173)"/><path d="M561.92,359.74a2.28,2.28,0,0,1,1-1.08,2.82,2.82,0,0,1,1.41-.36,2.76,2.76,0,0,1,1.3.33,2.46,2.46,0,0,1,1,1.06q1.61,3,2.91,6.06c.86,2.05,1.8,4.13,2.79,6.23q1.39-4.49,2.44-8.67c.7-2.78,1.42-5.53,2.16-8.22a3.31,3.31,0,0,1,1.06-1.91,2.84,2.84,0,0,1,1.71-.47,2.27,2.27,0,0,1,1.55.52,1.76,1.76,0,0,1,.61,1.41,15.25,15.25,0,0,1-.36,2.53c-.24,1.2-.55,2.58-.94,4.15s-.81,3.24-1.27,5-.93,3.47-1.39,5.1-.89,3.1-1.3,4.43-.72,2.33-.94,3a5.36,5.36,0,0,1-1,1.91,2.5,2.5,0,0,1-1.89.64,2.45,2.45,0,0,1-1.94-.91,12.59,12.59,0,0,1-1.44-2.19l-.72-1.5-1.19-2.49c-.46-1-1-2-1.49-3.16s-1.08-2.31-1.64-3.49c-.55,1.18-1.11,2.35-1.69,3.49s-1.1,2.21-1.58,3.19-.89,1.82-1.24,2.52l-.75,1.49a12.54,12.54,0,0,1-1.41,2.19,2.43,2.43,0,0,1-2,.92q-1.93,0-2.94-2.55c-.25-.67-.59-1.65-1-3s-.83-2.77-1.28-4.4-.88-3.31-1.33-5.07-.84-3.41-1.19-5-.63-2.91-.86-4.1a15.93,15.93,0,0,1-.33-2.54,2.28,2.28,0,0,1,.53-1.55,1.89,1.89,0,0,1,1.52-.61,3.09,3.09,0,0,1,1.8.47,3.26,3.26,0,0,1,1.08,1.91c.74,2.69,1.46,5.44,2.16,8.22s1.52,5.68,2.44,8.67q1.22-2.66,2.44-5.54T561.92,359.74Z" transform="translate(-41 -173)"/><path d="M618.09,380.9a2.84,2.84,0,0,1-1.41-.3,2,2,0,0,1-.8-.81,3.34,3.34,0,0,1-.39-1.19c-.08-.46-.13-1-.17-1.46a11.43,11.43,0,0,1-3.57,2.88,11.89,11.89,0,0,1-5.57,1.16,15.83,15.83,0,0,1-4.4-.64,10.46,10.46,0,0,1-4.07-2.21,11.81,11.81,0,0,1-3-4.24,16.88,16.88,0,0,1-1.16-6.7,21.79,21.79,0,0,1,.78-5.93,14.22,14.22,0,0,1,2.35-4.85,11.42,11.42,0,0,1,4-3.29,13.22,13.22,0,0,1,10.64-.2,10.82,10.82,0,0,1,4,3.35c0-.44,0-.89.05-1.35a4,4,0,0,1,.31-1.28,2,2,0,0,1,.8-.94,2.73,2.73,0,0,1,1.5-.36,2.26,2.26,0,0,1,1.55.66,4.42,4.42,0,0,1,.83,2.88c.11,2,.19,3.72.25,5.27s.08,3.15.08,4.82c0,2,0,3.89-.06,5.59s-.13,3.51-.27,5.43a13.39,13.39,0,0,1-.31,2,3.07,3.07,0,0,1-.47,1.11,1.25,1.25,0,0,1-.66.47A2.63,2.63,0,0,1,618.09,380.9Zm-3-14.07a11.17,11.17,0,0,0-.86-4.71,7.43,7.43,0,0,0-5-4.26,11,11,0,0,0-2.77-.39,7.39,7.39,0,0,0-3.4.72,6.29,6.29,0,0,0-2.3,2,8.42,8.42,0,0,0-1.3,2.93,15.32,15.32,0,0,0-.42,3.69q0,4.88,2.13,7.2A7.48,7.48,0,0,0,607,376.3a8.46,8.46,0,0,0,3.69-.74,7,7,0,0,0,2.49-2,8.59,8.59,0,0,0,1.44-3A14.35,14.35,0,0,0,615.1,366.83Z" transform="translate(-41 -173)"/><path d="M636.43,358.19c-.41,0-.81.06-1.19.08l-1.14,0a5.15,5.15,0,0,1-2.74-.58,2.46,2.46,0,0,1-.92-2.24,2.89,2.89,0,0,1,.7-2,3.78,3.78,0,0,1,2.74-.74,21,21,0,0,1,2.6.16v-3.21a17.41,17.41,0,0,1,.5-4.21,10.72,10.72,0,0,1,1.55-3.52,7.87,7.87,0,0,1,2.74-2.44,8.6,8.6,0,0,1,4.13-.91,5.49,5.49,0,0,1,3.1.64,2.37,2.37,0,0,1,.89,2.07,1.63,1.63,0,0,1-1.16,1.78,9.83,9.83,0,0,1-2.66.33,2.94,2.94,0,0,0-2.74,1.61,7.82,7.82,0,0,0-.92,3.93v3.88a7.85,7.85,0,0,1,1.41-.2c.47,0,.95,0,1.47,0a4.86,4.86,0,0,1,2.91.67,2.49,2.49,0,0,1,.86,2.1,2.32,2.32,0,0,1-1.16,2.36,7.67,7.67,0,0,1-3.11.53h-1.13a6.46,6.46,0,0,1-1.25-.12v19.06a7.23,7.23,0,0,1-.22,2.05,2.66,2.66,0,0,1-.61,1.11,1.62,1.62,0,0,1-.89.47,5.89,5.89,0,0,1-1.05.08,3.5,3.5,0,0,1-1-.14,1.68,1.68,0,0,1-.85-.55,3.39,3.39,0,0,1-.61-1.14,5.51,5.51,0,0,1-.25-1.82Z" transform="translate(-41 -173)"/><path d="M660.75,358.19c-.41,0-.81.06-1.2.08l-1.13,0a5.15,5.15,0,0,1-2.74-.58,2.46,2.46,0,0,1-.92-2.24,2.85,2.85,0,0,1,.7-2,3.78,3.78,0,0,1,2.74-.74,21,21,0,0,1,2.6.16v-3.21a17.41,17.41,0,0,1,.5-4.21,10.72,10.72,0,0,1,1.55-3.52,7.87,7.87,0,0,1,2.74-2.44,8.58,8.58,0,0,1,4.13-.91,5.49,5.49,0,0,1,3.1.64,2.37,2.37,0,0,1,.89,2.07,1.63,1.63,0,0,1-1.17,1.78,9.7,9.7,0,0,1-2.65.33,3,3,0,0,0-2.75,1.61,7.93,7.93,0,0,0-.91,3.93v3.88a7.85,7.85,0,0,1,1.41-.2q.69,0,1.47,0a4.86,4.86,0,0,1,2.91.67,2.49,2.49,0,0,1,.86,2.1,2.31,2.31,0,0,1-1.17,2.36,7.61,7.61,0,0,1-3.1.53h-1.13a6.46,6.46,0,0,1-1.25-.12v19.06a7.23,7.23,0,0,1-.22,2.05,2.66,2.66,0,0,1-.61,1.11,1.65,1.65,0,0,1-.89.47,5.89,5.89,0,0,1-1,.08,3.5,3.5,0,0,1-1-.14,1.7,1.7,0,0,1-.86-.55,3.38,3.38,0,0,1-.6-1.14,5.51,5.51,0,0,1-.25-1.82Zm16.45,19.28c0-1.33-.08-2.88-.11-4.66s-.07-3.69-.09-5.76,0-4.24,0-6.53,0-4.64,0-7q0-3.93.06-6.76a41.6,41.6,0,0,1,.3-4.65,6.94,6.94,0,0,1,.8-2.69,1.76,1.76,0,0,1,1.56-.86,2.54,2.54,0,0,1,1.66.61c.48.41.75,1.35.83,2.83q.23,4,.28,8.28t.05,8.45v4.79c0,1.53,0,3-.05,4.54s-.08,3-.12,4.57-.09,3.16-.16,4.82a10,10,0,0,1-.25,2,2.87,2.87,0,0,1-.53,1.11,1.29,1.29,0,0,1-.74.47,4.75,4.75,0,0,1-1,.08,2.23,2.23,0,0,1-1.67-.69A4.88,4.88,0,0,1,677.2,377.47Z" transform="translate(-41 -173)"/><path d="M710.05,370.49a27.75,27.75,0,0,1-4.07-.31,19.77,19.77,0,0,1-4.63-1.3,7.42,7.42,0,0,0,2.8,5.1,11,11,0,0,0,6.62,1.72,18.33,18.33,0,0,0,2.8-.2c.83-.13,1.55-.28,2.18-.44l1.67-.44a5.05,5.05,0,0,1,1.33-.2,2.73,2.73,0,0,1,1.49.47,1.75,1.75,0,0,1,.72,1.58,2.77,2.77,0,0,1-1.13,2.27,9,9,0,0,1-2.77,1.41,16.69,16.69,0,0,1-3.47.73c-1.22.12-2.29.19-3.21.19a19.48,19.48,0,0,1-6-.89,12.86,12.86,0,0,1-4.74-2.68,12.29,12.29,0,0,1-3.1-4.46,17.82,17.82,0,0,1,0-12.3,13,13,0,0,1,3-4.49,12.4,12.4,0,0,1,4.46-2.77,16,16,0,0,1,5.56-.94,16.65,16.65,0,0,1,4.52.61,12.29,12.29,0,0,1,3.88,1.83,9.21,9.21,0,0,1,2.71,3.07,8.91,8.91,0,0,1,1,4.35,7.84,7.84,0,0,1-.84,3.77,6.45,6.45,0,0,1-2.35,2.49,11.08,11.08,0,0,1-3.66,1.38A23,23,0,0,1,710.05,370.49Zm-.39-12.85a11.36,11.36,0,0,0-2.88.36,7.62,7.62,0,0,0-2.52,1.16,6.78,6.78,0,0,0-1.91,2.1,8.77,8.77,0,0,0-1.06,3.24,18,18,0,0,0,4.1,1.31,23.74,23.74,0,0,0,4.21.36,11.08,11.08,0,0,0,4.85-.81,3,3,0,0,0,1.58-2.9,4.57,4.57,0,0,0-1.47-3.38Q713.09,357.64,709.66,357.64Z" transform="translate(-41 -173)"/><path d="M744.61,351.76a27.94,27.94,0,0,1,2.94.2,16.76,16.76,0,0,1,3.38.72,8.62,8.62,0,0,1,2.77,1.47,2.94,2.94,0,0,1,1.16,2.38,2.26,2.26,0,0,1-.47,1.44,1.72,1.72,0,0,1-1.47.61,7.42,7.42,0,0,1-1.63-.22c-.61-.15-1.27-.33-2-.53s-1.49-.38-2.32-.53a15.81,15.81,0,0,0-2.63-.22,8.67,8.67,0,0,0-3.8.72,2.38,2.38,0,0,0-1.47,2.27,2.24,2.24,0,0,0,.53,1.5,4.6,4.6,0,0,0,1.44,1.08,11,11,0,0,0,2.16.8c.83.22,1.71.45,2.63.67,1.15.29,2.28.63,3.41,1a10.73,10.73,0,0,1,3,1.53,7.46,7.46,0,0,1,2.16,2.44,7.26,7.26,0,0,1,.83,3.62,7.79,7.79,0,0,1-3.1,6.51q-3.1,2.42-9.14,2.41a30.21,30.21,0,0,1-3.16-.19,16.67,16.67,0,0,1-3.43-.72,7.92,7.92,0,0,1-2.75-1.5,3.22,3.22,0,0,1-1.13-2.57,2.43,2.43,0,0,1,.52-1.69,1.7,1.7,0,0,1,1.31-.58,2.6,2.6,0,0,1,1.27.38,18,18,0,0,0,1.61.83,14.83,14.83,0,0,0,2.27.84,12.13,12.13,0,0,0,3.27.38c.48,0,1.1,0,1.88-.08a9.22,9.22,0,0,0,2.3-.47,6,6,0,0,0,1.94-1.08,2.48,2.48,0,0,0,.8-2,2.62,2.62,0,0,0-.55-1.69,4.68,4.68,0,0,0-1.5-1.19,11.76,11.76,0,0,0-2.19-.86l-2.63-.75q-1.61-.43-3.24-1a12.52,12.52,0,0,1-3-1.44,7,7,0,0,1-2.16-2.25,6.24,6.24,0,0,1-.83-3.35,8,8,0,0,1,.77-3.51,8.51,8.51,0,0,1,2.22-2.86,10.19,10.19,0,0,1,3.46-1.88A14.48,14.48,0,0,1,744.61,351.76Z" transform="translate(-41 -173)"/><path class="cls-1" d="M279.1,303.19c.38,10.27-1.9,12.94-12,14.2l-2.41.26c-9.89,1.27-12.43-1.14-12.18-11.16l1.53-56.3-11.67.76c-10.14.76-12.81-1.65-12.68-11.79l.13-8.5c.12-10.14,2.53-12.55,12.68-11.92l51.48,3c9.64.63,11.92,3,11.54,12.93-.26,9.64-2.54,12.05-12.18,12.68l-16.23,1.14Z" transform="translate(-41 -173)"/><path class="cls-1" d="M385.49,302.05c.38,10.14-2,12.3-14.46,12.3-10.27,0-12.68-2.66-12.81-12.93L358,280.75l-15.72,1.52-.51,21.94c-.25,10.14-2.92,12.42-13.31,11.66s-12.81-3.42-12.94-13.69l-1-65.81c-.13-10.27,2.15-12.56,12.42-13.32l3.3-.25c10.14-.76,12.68,1.9,12.43,12l-.64,26.5,15.85-.38-.25-25.49c-.13-10,2.28-12.68,12.3-13.44s12.81,1.39,13.19,11.28Z" transform="translate(-41 -173)"/><path class="cls-1" d="M479.19,302.18c3.3,9.25,1.27,12-8.5,12.42l-4.18.26c-12.81.76-13.32-1.78-15.85-11.79l-2.79-10.91-24.47.89-1.4,7.73c-1.77,10.15-2.28,12.18-15.09,13.06l-3.67.26c-9.77.5-11.92-2.16-9.39-11.67l19.4-71.13c2.67-10,5.58-12.68,23.33-14,10.4-.76,13.44,1.14,16.87,10.9Zm-35.76-26.76-9.38-29.92-7.23,29.92Z" transform="translate(-41 -173)"/><path class="cls-1" d="M565.28,308c-.5,5.83-1.9,7.35-7.86,8.62s-7.86.26-11-4.69l-30.68-47.68,1.77,38.55c.38,10-2.16,12.43-12.05,11.41l-2-.25c-10.15-1-12.68-3.68-12.94-14L489,239.54c-.25-10.27,1.78-13.44,12.05-15.09l4.69-.76c10.27-1.65,13.44-.38,18.26,8.87l19.27,36.52-1.39-35.63c-.38-10.14,2-13.06,12.17-13.44l6.47-.25c10-.38,12.42,1.9,11.53,11.92Z" transform="translate(-41 -173)"/><path class="cls-1" d="M646.94,281.76l-7-.12c-7.36-.13-9.13-1.91-9.39-9.51-.12-7.36,1.65-9.13,9-9.51L674.71,261c2-.13,2.66.38,2.79,2.41v2.91c0,36.78-24.47,52.63-46.92,52.63-24.85,0-50.46-19.41-50.46-51.74,0-31.32,24.6-50,53.25-50a71.22,71.22,0,0,1,20.29,3c9.26,2.79,10.91,6.6,6.6,15.22L659.5,237c-4.44,8.88-6.6,9.89-16.24,7.1a42.9,42.9,0,0,0-11.79-1.77c-11.79,0-21.93,6.21-21.93,24.85,0,16.1,12.17,27.52,22.44,27.52C638.7,294.7,644.66,290.89,646.94,281.76Z" transform="translate(-41 -173)"/><path class="cls-1" d="M700.45,242.45c-2.66,5.71-4.69,7.23-10.91,8.12s-7.48-.63-6.08-6.34l3.93-17.12c1.9-8.37,4.44-10.14,13.31-9,8.25,1,9.64,3.55,6.09,11Z" transform="translate(-41 -173)"/><path class="cls-1" d="M721,307.88c-7-4.31-7.86-8.49-2.92-15l.38-.63c6-7.86,8-8.5,17.38-4.57a43.58,43.58,0,0,0,16.86,3.68c9.76,0,16.74-4.19,16.74-11.16,0-16-52.37-3.68-52.37-34.36,0-23.59,22.82-29.67,44.38-29.67,4.06,0,8.11.25,11.92.63,9,.89,11.28,3.55,11,12.55-.25,7.36-1.39,9.64-6.21,9.64-1.65,0-9.51-1.65-16.74-1.65-7.61,0-14.08,1.9-14.08,7.48,0,12.94,54.27-5.45,54.27,37.16,0,24.09-22.82,34.74-46.15,34.74C742.93,316.76,730.25,313.59,721,307.88Z" transform="translate(-41 -173)"/><path d="M45.57,374.2C53.64,387.77,84.64,423,130.5,423s76.85-35.24,84.93-48.8c7.12-12,4.75-22.45.79-39.8h0a394.18,394.18,0,0,1-7.33-39.52c-4.22-32.43-11.6-64.38-36-80.32,4.47-10.4.76-19.73-5.48-24.73-4.62-3.69-10.1-4.92-14.85-3.64A16.67,16.67,0,0,0,138.32,175a18.88,18.88,0,0,0-15.9,5.83,21.71,21.71,0,0,0-20.92-7.47,15,15,0,0,0-10.5,8c-4.24,7.79-3.88,19,.9,30.88-27.41,15-35.36,48.51-39.79,82.57a397.93,397.93,0,0,1-7.33,39.53C40.83,351.76,38.44,362.23,45.57,374.2Z" transform="translate(-41 -173)"/><path d="M130.5,421c-44.92,0-75.28-34.51-83.2-47.81-6.71-11.28-4.53-20.88-.57-38.3l0-.14a395.76,395.76,0,0,0,7.34-39.61c4.35-33.45,12.06-66.43,38.77-81.07a2,2,0,0,0,.9-2.51c-4.57-11.32-4.93-22-1-29.17a13.11,13.11,0,0,1,9.09-7,21.41,21.41,0,0,1,3.81-.34,19.58,19.58,0,0,1,15.19,7.11,2,2,0,0,0,1.51.74h0a2,2,0,0,0,1.48-.66,16.89,16.89,0,0,1,12.33-5.29,16.44,16.44,0,0,1,1.86.11,14.64,14.64,0,0,1,12.61,9.83,2,2,0,0,0,1.89,1.34,1.93,1.93,0,0,0,.53-.07,12.46,12.46,0,0,1,3.24-.42,16,16,0,0,1,9.84,3.69c5,4,9.24,12.23,4.88,22.36a2,2,0,0,0,.75,2.48c23.83,15.6,30.93,47.14,35.06,78.9a396.46,396.46,0,0,0,7.29,39.4l.07.31c3.85,16.86,6.17,27-.55,38.34C205.78,386.47,175.38,421,130.5,421Z" transform="translate(-41 -173)"/><path class="cls-2" d="M99.8,209.51c-4-9.65-4.61-18.75-1.53-24.38h0a7,7,0,0,1,4.7-3.85,15.8,15.8,0,0,1,2.71-.25,13.38,13.38,0,0,1,12.86,9.31l4.36,12.52,3.53-12.78c1.53-5.55,6.75-7.57,11-7.08,1.82.21,7.79,1.51,8.11,9.36l.36,9,6.6-6.19c2.78-2.61,7.06-1.41,9.84.82,3.46,2.75,5.85,7.78,3.4,14.21-9.84-3.37-20.95-1.69-31.06,4.83-7.56,4.88-13.36,11.68-15.87,18.19C113.24,228.87,104.46,220.62,99.8,209.51Z" transform="translate(-41 -173)"/><path class="cls-2" d="M52.66,336.41a397.36,397.36,0,0,0,7.48-40.31c4.14-31.76,11.36-62.86,35.33-76.24,9,15.27,23.22,24.06,23.9,24.48l6.62,4-.32-7.72c-.2-4.56,4.8-12.62,13.47-18.22,4.87-3.14,14.21-7.54,24.32-3.82a4.1,4.1,0,0,0,.69.45c25.11,12.94,32.48,44.68,36.71,77.05a398.45,398.45,0,0,0,7.48,40.31c3.86,16.91,5.62,24.63.17,33.77h0C201.58,381.8,172.4,415,130.5,415s-71.08-33.17-78-44.79C47,361,48.8,353.32,52.66,336.41Z" transform="translate(-41 -173)"/><path class="cls-3" d="M130.5,415a83.35,83.35,0,0,0,33.59-7.29A109.06,109.06,0,0,0,205.24,375a40.75,40.75,0,0,0,4.58-7.24,24.91,24.91,0,0,0,2-12.47c-.42-5.92-1.9-11.76-3.22-17.53-1.16-5.12-2.33-10.24-3.38-15.38q-1.95-9.48-3.39-19.05c-1-6.6-1.77-13.23-2.86-19.82-1.95-11.7-4.55-23.42-9.17-34.39-4.12-9.8-10.05-19-18.59-25.55a49.33,49.33,0,0,0-6.74-4.3,33.14,33.14,0,0,0-4.67-1.65,23.3,23.3,0,0,0-5.21-.4A31.1,31.1,0,0,0,139,222.51c-4.82,3.14-9.29,7.46-11.86,12.66a12,12,0,0,0-1.46,5.47c0,1.29.11,2.58.16,3.86l.16,3.86a120.93,120.93,0,0,1-11.88-7.74,80.38,80.38,0,0,1-10.71-10,70.8,70.8,0,0,1-5.59-7.09c-.44-.64-.86-1.29-1.28-1.95l-.62-1a2.47,2.47,0,0,0-.27-.44c-.4-.42-.08-.21-.53-.09a7.37,7.37,0,0,0-1.65,1q-.87.54-1.71,1.11c-8.69,6-15,14.7-19.34,24.17-4.86,10.48-7.66,21.82-9.72,33.14-2.32,12.73-3.59,25.62-6,38.33-1,5.21-2.13,10.39-3.3,15.56-1.3,5.75-2.75,11.5-3.67,17.33-.69,4.37-1,8.88.11,13.19a28.4,28.4,0,0,0,4.34,8.83,95.3,95.3,0,0,0,13.63,15.45,108.89,108.89,0,0,0,23,16.55,86.78,86.78,0,0,0,31.08,9.79A80.36,80.36,0,0,0,130.5,415Z" transform="translate(-41 -173)"/><path d="M161.76,328a15.3,15.3,0,0,1,.8,7,21.08,21.08,0,0,1-1.94,5.59c-1.22,2.64-2.61,5.2-4.05,7.71-2,3.48-4.13,6.87-6.35,10.21,1.9,2.6,3.73,5.37,5.31,8a56.14,56.14,0,0,1,4.48,9,19.82,19.82,0,0,1-.46,14.52,18.83,18.83,0,0,1-10.2,10A18.72,18.72,0,0,1,131,397.51a18.66,18.66,0,0,1-14.91,3.57,19.45,19.45,0,0,1-3.45-1,18.86,18.86,0,0,1-10.21-10,19.85,19.85,0,0,1-.46-14.53,55,55,0,0,1,4.49-9c1.58-2.67,3.42-5.46,5.34-8.08q-.43-.62-.84-1.23a129.54,129.54,0,0,1-9.54-16.65,21.65,21.65,0,0,1-1.92-5.5c-.74-4.68,1.31-9.22,3.79-13.05s5.33-7.78,8.22-11.47A58,58,0,0,1,122,299.91c3.53-2.65,7.82-4.17,12.2-3s8.18,4.7,11.33,8a89.92,89.92,0,0,1,9.1,11.31C157.29,320,160.25,323.62,161.76,328Zm-7.86,60.11a16,16,0,0,0,.25-11.29,50.92,50.92,0,0,0-3.88-7.82c-1-1.73-2.2-3.6-3.48-5.48-.5.7-1,1.41-1.49,2.09-1.8,2.45-3.66,4.87-5.64,7.17a32.61,32.61,0,0,1-4.62,4.63,6.54,6.54,0,0,1-8,0,29.47,29.47,0,0,1-4.55-4.52c-2.6-3-5-6.16-7.29-9.41-1.28,1.89-2.47,3.76-3.5,5.5a51.86,51.86,0,0,0-3.88,7.81,16.16,16.16,0,0,0,.25,11.29,13.61,13.61,0,0,0,7.36,7.71,10.94,10.94,0,0,0,6.92.48c2.27-.57,3.91-1.95,5.66-3.92.57-.65,2-4,3-4s2.45,3.37,3,4c1.76,2,3.34,3.35,5.6,3.93a11,11,0,0,0,6.93-.49A13.63,13.63,0,0,0,153.9,388.11Z" transform="translate(-41 -173)"/><path class="cls-4" d="M154.15,376.82a16,16,0,0,1-.25,11.29,13.63,13.63,0,0,1-7.35,7.71,11,11,0,0,1-6.93.49c-2.26-.58-3.84-2-5.6-3.93-.57-.65-2.05-4-3-4s-2.44,3.37-3,4c-1.75,2-3.39,3.35-5.66,3.92a10.94,10.94,0,0,1-6.92-.48,13.61,13.61,0,0,1-7.36-7.71,16.16,16.16,0,0,1-.25-11.29,51.86,51.86,0,0,1,3.88-7.81c1-1.74,2.22-3.61,3.5-5.5,2.3,3.25,4.69,6.42,7.29,9.41a29.47,29.47,0,0,0,4.55,4.52,6.54,6.54,0,0,0,8,0,32.61,32.61,0,0,0,4.62-4.63c2-2.3,3.84-4.72,5.64-7.17.51-.68,1-1.39,1.49-2.09,1.28,1.88,2.45,3.75,3.48,5.48A50.92,50.92,0,0,1,154.15,376.82Z" transform="translate(-41 -173)"/><path class="cls-5" d="M131,371.29a1.51,1.51,0,0,1-1-.37c-5.86-5.11-23.27-31.12-24.09-37.05-.55-3.95,2.61-8.26,5.4-12.07.5-.68,1-1.33,1.42-2,3.26-4.63,7.28-9.91,12.47-14.1,2.29-1.85,4.09-2.71,5.68-2.71h.18c1.62,0,3.49.9,5.72,2.71,5.18,4.19,9.21,9.47,12.46,14.09l1.15,1.6.27.36c2.79,3.82,5.94,8.13,5.39,12.08-.82,5.92-18.23,31.93-24.08,37.05A1.54,1.54,0,0,1,131,371.29Z" transform="translate(-41 -173)"/><path class="cls-5" d="M130.9,304.53h.17c1.22,0,2.81.77,4.78,2.37,5.06,4.09,9,9.27,12.18,13.79.45.64.94,1.3,1.44,2,2.61,3.58,5.58,7.63,5.12,11h0c-.73,5.26-17.72,31-23.59,36.13-5.87-5.13-22.85-30.87-23.58-36.13-.47-3.35,2.51-7.4,5.13-11,.5-.67,1-1.33,1.43-2,3.19-4.52,7.13-9.7,12.18-13.79,2-1.57,3.53-2.37,4.74-2.37m0-3h0c-2,0-4.05,1-6.62,3-5.33,4.31-9.44,9.7-12.75,14.4-.44.63-.91,1.27-1.39,1.92-3,4.06-6.33,8.64-5.69,13.19.86,6.25,18.37,32.54,24.58,38a3,3,0,0,0,3.95,0c6.21-5.43,23.71-31.72,24.58-38,.63-4.55-2.71-9.12-5.66-13.15l-.3-.41c-.39-.53-.76-1.05-1.11-1.54-3.31-4.7-7.42-10.09-12.75-14.4-2.5-2-4.67-3-6.64-3h-.2Z" transform="translate(-41 -173)"/><path class="cls-6" d="M118.77,233.24c2.51-6.51,8.31-13.31,15.87-18.19,10.11-6.52,21.22-8.2,31.06-4.83,2.45-6.43.06-11.46-3.4-14.21-2.78-2.23-7.06-3.43-9.84-.82l-6.6,6.19-.36-9c-.32-7.85-6.29-9.15-8.11-9.36-4.21-.49-9.43,1.53-11,7.08l-3.53,12.78-4.36-12.52A13.38,13.38,0,0,0,105.68,181a15.8,15.8,0,0,0-2.71.25,7,7,0,0,0-4.7,3.85h0c-3.08,5.63-2.51,14.73,1.53,24.38C104.46,220.62,113.24,228.87,118.77,233.24Z" transform="translate(-41 -173)"/><path d="M94.81,303.52h0a6.53,6.53,0,1,0,0-13h0a6.53,6.53,0,1,0,0,13Z" transform="translate(-41 -173)"/><path class="cls-2" d="M166.2,290.47a6.52,6.52,0,0,0-6.54,6.52v0a6.54,6.54,0,1,0,6.54-6.54Z" transform="translate(-41 -173)"/></svg>